<svg width="17" height="16" viewBox="0 0 17 16" fill="none" xmlns="http://www.w3.org/2000/svg">
<path d="M3.4707 14.4265C3.4707 14.4461 3.48655 14.4619 3.50609 14.4619H13.1208C13.1403 14.4619 13.1561 14.4461 13.1561 14.4265V8.53204C13.1561 8.52206 13.1519 8.51254 13.1445 8.50583L8.31083 4.11918C8.29728 4.10689 8.2766 4.10694 8.26312 4.11931L3.48217 8.50584C3.47486 8.51255 3.4707 8.52201 3.4707 8.53192V14.4265Z" fill="#FFCC80"/>
<path d="M3.4707 14.4265C3.4707 14.4461 3.48655 14.4619 3.50609 14.4619H4.41425C4.43379 14.4619 4.44964 14.4461 4.44964 14.4265V8.53227C4.44964 8.52215 4.45397 8.51252 4.46153 8.5058L8.82944 4.62824C8.84534 4.61413 8.84529 4.58927 8.82934 4.57522L8.31079 4.11851C8.29721 4.10655 8.2768 4.10676 8.26347 4.11899L3.48217 8.50584C3.47486 8.51255 3.4707 8.52201 3.4707 8.53192V14.4265Z" fill="#E2B26B"/>
<mask id="path-3-inside-1" fill="white">
<rect x="6.71216" y="10.0061" width="3.2027" height="4.66733" rx="0.151524"/>
</mask>
<rect x="6.71216" y="10.0061" width="3.2027" height="4.66733" rx="0.151524" fill="#F77E53" stroke="#0F2054" stroke-width="0.909142" mask="url(#path-3-inside-1)"/>
<mask id="path-4-inside-2" fill="white">
<rect x="10.686" y="1.61406" width="2.47022" height="4.03588" rx="0.151524"/>
</mask>
<rect x="10.686" y="1.61406" width="2.47022" height="4.03588" rx="0.151524" fill="#FFCC80" stroke="#0F2054" stroke-width="0.909142" mask="url(#path-4-inside-2)"/>
<path d="M13.1561 8.2715V14.4265C13.1561 14.4461 13.1403 14.4619 13.1208 14.4619H3.50609C3.48655 14.4619 3.4707 14.4461 3.4707 14.4265V8.2715" stroke="#0F2054" stroke-width="0.530333"/>
<path d="M1.49814 7.54855C1.467 7.5206 1.467 7.47528 1.49814 7.44734L6.86321 2.63176L8.22886 1.39781C8.26021 1.36948 8.31132 1.36966 8.34243 1.3982L9.6869 2.63176L15.1255 7.44761C15.1569 7.4754 15.1572 7.52076 15.1262 7.54889L13.8311 8.72404C13.8001 8.75213 13.7497 8.75239 13.7183 8.72463L8.34224 3.95868C8.31105 3.93103 8.26084 3.93117 8.22983 3.959L2.92079 8.72428C2.88965 8.75223 2.83917 8.75223 2.80803 8.72428L1.49814 7.54855Z" fill="#F77E53"/>
<path d="M1.49814 7.54855C1.467 7.5206 1.467 7.47528 1.49814 7.44734L6.86321 2.63176L8.22886 1.39781C8.26021 1.36948 8.31132 1.36966 8.34243 1.3982L9.6869 2.63176L15.1255 7.44761C15.1569 7.4754 15.1572 7.52076 15.1262 7.54889L13.8311 8.72404C13.8001 8.75213 13.7497 8.75239 13.7183 8.72463L8.34225 3.95868C8.31105 3.93103 8.26084 3.93117 8.22983 3.959L2.92079 8.72428C2.88965 8.75223 2.83917 8.75223 2.80803 8.72428L1.49814 7.54855Z" stroke="#0F2054" stroke-width="0.530333"/>
<mask id="path-8-inside-3" fill="white">
<rect x="6.71216" y="6.29546" width="3.2027" height="2.98424" rx="0.151524"/>
</mask>
<rect x="6.71216" y="6.29546" width="3.2027" height="2.98424" rx="0.151524" fill="#FEFFFF" stroke="#0F2054" stroke-width="0.909142" mask="url(#path-8-inside-3)"/>
<path d="M8.31348 6.63765V8.93751" stroke="#0F2054" stroke-width="0.378809"/>
<path d="M9.46338 7.78758L7.16351 7.78758" stroke="#0F2054" stroke-width="0.378809"/>
</svg>
