<svg width="17" height="16" viewBox="0 0 17 16" fill="none" xmlns="http://www.w3.org/2000/svg">
<path d="M12.8467 5.333C13.3554 5.333 13.7677 4.92026 13.7677 4.41111C13.7677 3.90196 13.3554 3.48921 12.8467 3.48921C12.3381 3.48921 11.9258 3.90196 11.9258 4.41111C11.9258 4.92026 12.3381 5.333 12.8467 5.333Z" fill="#FFF9C4"/>
<path d="M12.8467 5.333C13.3554 5.333 13.7677 4.92026 13.7677 4.41111C13.7677 3.90196 13.3554 3.48921 12.8467 3.48921C12.3381 3.48921 11.9258 3.90196 11.9258 4.41111C11.9258 4.92026 12.3381 5.333 12.8467 5.333Z" fill="#FFF9C4"/>
<path d="M12.6905 5.33303C13.1991 5.33303 13.6115 4.92029 13.6115 4.41114C13.6115 3.90199 13.1991 3.48924 12.6905 3.48924C12.1819 3.48924 11.7695 3.90199 11.7695 4.41114C11.7695 4.92029 12.1819 5.33303 12.6905 5.33303Z" stroke="#0F2054" stroke-width="0.294594" stroke-miterlimit="10"/>
<path d="M12.6905 5.33303C13.1991 5.33303 13.6115 4.92029 13.6115 4.41114C13.6115 3.90199 13.1991 3.48924 12.6905 3.48924C12.1819 3.48924 11.7695 3.90199 11.7695 4.41114C11.7695 4.92029 12.1819 5.33303 12.6905 5.33303Z" stroke="#0F2054" stroke-width="0.402788" stroke-miterlimit="10"/>
<path d="M11.0765 5.33303C11.8337 5.33303 12.4475 4.71861 12.4475 3.96069C12.4475 3.20277 11.8337 2.58835 11.0765 2.58835C10.3194 2.58835 9.70557 3.20277 9.70557 3.96069C9.70557 4.71861 10.3194 5.33303 11.0765 5.33303Z" fill="#FFF9C4"/>
<path d="M11.0765 5.33303C11.8337 5.33303 12.4475 4.71861 12.4475 3.96069C12.4475 3.20277 11.8337 2.58835 11.0765 2.58835C10.3194 2.58835 9.70557 3.20277 9.70557 3.96069C9.70557 4.71861 10.3194 5.33303 11.0765 5.33303Z" fill="#FFF9C4"/>
<path d="M5.00837 5.333C5.517 5.333 5.92933 4.92026 5.92933 4.41111C5.92933 3.90196 5.517 3.48921 5.00837 3.48921C4.49973 3.48921 4.0874 3.90196 4.0874 4.41111C4.0874 4.92026 4.49973 5.333 5.00837 5.333Z" fill="#FFF9C4"/>
<path d="M5.00837 5.333C5.517 5.333 5.92933 4.92026 5.92933 4.41111C5.92933 3.90196 5.517 3.48921 5.00837 3.48921C4.49973 3.48921 4.0874 3.90196 4.0874 4.41111C4.0874 4.92026 4.49973 5.333 5.00837 5.333Z" fill="#FFF9C4"/>
<path d="M11.0765 5.33302C11.8337 5.33302 12.4475 4.7186 12.4475 3.96067C12.4475 3.20275 11.8337 2.58833 11.0765 2.58833C10.3194 2.58833 9.70557 3.20275 9.70557 3.96067C9.70557 4.7186 10.3194 5.33302 11.0765 5.33302Z" fill="#FFCC80"/>
<path d="M11.0765 5.33302C11.8337 5.33302 12.4475 4.7186 12.4475 3.96067C12.4475 3.20275 11.8337 2.58833 11.0765 2.58833C10.3194 2.58833 9.70557 3.20275 9.70557 3.96067C9.70557 4.7186 10.3194 5.33302 11.0765 5.33302Z" stroke="#0F2054" stroke-width="0.402788" stroke-miterlimit="10"/>
<path d="M5.00843 5.33301C5.56334 5.33301 6.01319 4.88271 6.01319 4.32724C6.01319 3.77176 5.56334 3.32146 5.00843 3.32146C4.45351 3.32146 4.00366 3.77176 4.00366 4.32724C4.00366 4.88271 4.45351 5.33301 5.00843 5.33301Z" stroke="#0F2054" stroke-width="0.294594" stroke-miterlimit="10"/>
<path d="M5.00843 5.33301C5.56334 5.33301 6.01319 4.88271 6.01319 4.32724C6.01319 3.77176 5.56334 3.32146 5.00843 3.32146C4.45351 3.32146 4.00366 3.77176 4.00366 4.32724C4.00366 4.88271 4.45351 5.33301 5.00843 5.33301Z" stroke="#0F2054" stroke-width="0.402788" stroke-miterlimit="10"/>
<path d="M8.76939 5.41674C9.77464 5.41674 10.5896 4.601 10.5896 3.59473C10.5896 2.58846 9.77464 1.77272 8.76939 1.77272C7.76414 1.77272 6.94922 2.58846 6.94922 3.59473C6.94922 4.601 7.76414 5.41674 8.76939 5.41674Z" fill="#FFF9C4"/>
<path d="M8.76939 5.41674C9.77464 5.41674 10.5896 4.601 10.5896 3.59473C10.5896 2.58846 9.77464 1.77272 8.76939 1.77272C7.76414 1.77272 6.94922 2.58846 6.94922 3.59473C6.94922 4.601 7.76414 5.41674 8.76939 5.41674Z" fill="#FFF9C4"/>
<path d="M8.76939 5.41674C9.77464 5.41674 10.5896 4.601 10.5896 3.59473C10.5896 2.58846 9.77464 1.77272 8.76939 1.77272C7.76414 1.77272 6.94922 2.58846 6.94922 3.59473C6.94922 4.601 7.76414 5.41674 8.76939 5.41674Z" fill="#FFF9C4"/>
<path d="M8.76939 5.41674C9.77464 5.41674 10.5896 4.601 10.5896 3.59473C10.5896 2.58846 9.77464 1.77272 8.76939 1.77272C7.76414 1.77272 6.94922 2.58846 6.94922 3.59473C6.94922 4.601 7.76414 5.41674 8.76939 5.41674Z" fill="#FFF9C4"/>
<path d="M8.76939 5.41674C9.77464 5.41674 10.5896 4.601 10.5896 3.59473C10.5896 2.58846 9.77464 1.77272 8.76939 1.77272C7.76414 1.77272 6.94922 2.58846 6.94922 3.59473C6.94922 4.601 7.76414 5.41674 8.76939 5.41674Z" stroke="#0F2054" stroke-width="0.294594" stroke-miterlimit="10"/>
<path d="M8.76939 5.41674C9.77464 5.41674 10.5896 4.601 10.5896 3.59473C10.5896 2.58846 9.77464 1.77272 8.76939 1.77272C7.76414 1.77272 6.94922 2.58846 6.94922 3.59473C6.94922 4.601 7.76414 5.41674 8.76939 5.41674Z" stroke="#0F2054" stroke-width="0.294594" stroke-miterlimit="10"/>
<path d="M8.76939 5.41671C9.77464 5.41671 10.5896 4.60097 10.5896 3.5947C10.5896 2.58843 9.77464 1.77269 8.76939 1.77269C7.76414 1.77269 6.94922 2.58843 6.94922 3.5947C6.94922 4.60097 7.76414 5.41671 8.76939 5.41671Z" stroke="#0F2054" stroke-width="0.294594" stroke-miterlimit="10"/>
<path d="M8.76939 5.41671C9.77464 5.41671 10.5896 4.60097 10.5896 3.5947C10.5896 2.58843 9.77464 1.77269 8.76939 1.77269C7.76414 1.77269 6.94922 2.58843 6.94922 3.5947C6.94922 4.60097 7.76414 5.41671 8.76939 5.41671Z" stroke="#0F2054" stroke-width="0.402788" stroke-miterlimit="10"/>
<path d="M6.77747 5.55252C7.65572 5.55252 8.36768 4.83984 8.36768 3.9607C8.36768 3.08156 7.65572 2.36888 6.77747 2.36888C5.89922 2.36888 5.18726 3.08156 5.18726 3.9607C5.18726 4.83984 5.89922 5.55252 6.77747 5.55252Z" fill="#FFCC80"/>
<path d="M6.77747 5.55252C7.65572 5.55252 8.36768 4.83984 8.36768 3.9607C8.36768 3.08156 7.65572 2.36888 6.77747 2.36888C5.89922 2.36888 5.18726 3.08156 5.18726 3.9607C5.18726 4.83984 5.89922 5.55252 6.77747 5.55252Z" stroke="#0F2054" stroke-width="0.402788" stroke-miterlimit="10"/>
<path d="M5.23302 14.2278H12.4619L13.6554 4.94272H4.03955L5.23302 14.2278Z" fill="#1DE9B6"/>
<path d="M13.561 5.78425L13.647 4.93265H4.03113L5.2246 14.2177H6.14631L5.0388 5.78425H13.561Z" fill="#00BFA5"/>
<path d="M5.23302 14.2278H12.4619L13.6554 5.05585H4.03955L5.23302 14.2278Z" stroke="#0F2054" stroke-width="0.516832" stroke-miterlimit="10" stroke-linecap="round" stroke-linejoin="round"/>
<path d="M6.04956 4.94272L7.18749 14.2278" stroke="#0F2054" stroke-width="0.439405" stroke-miterlimit="10"/>
<path d="M11.6455 4.94272L10.5076 14.2278" stroke="#0F2054" stroke-width="0.439405" stroke-miterlimit="10"/>
<path d="M8.76959 4.94272V14.2278" stroke="#0F2054" stroke-width="0.439405" stroke-miterlimit="10"/>
</svg>
