<svg width="17" height="17" viewBox="0 0 17 17" fill="none" xmlns="http://www.w3.org/2000/svg">
<path d="M8.49805 14.9484C12.0166 14.0548 12.3089 11.4737 12.4595 10.9682C11.9581 11.1195 9.3892 11.4132 8.49805 14.9484Z" fill="#00C3A4"/>
<path d="M8.71753 14.3272C8.64666 14.5302 8.58111 14.7455 8.52441 14.9752C12.0429 14.0816 12.3353 11.5005 12.4859 10.995C12.3725 11.0288 12.1546 11.0697 11.8764 11.1534C11.6124 12.0399 10.9286 13.5476 8.71753 14.3272Z" fill="#008C7B"/>
<path d="M8.52441 14.9484C12.0429 14.0548 12.3353 11.4737 12.4859 10.9682C11.9845 11.1195 9.41556 11.4132 8.52441 14.9484Z" stroke="#0A1F57" stroke-width="0.546445" stroke-miterlimit="10" stroke-linecap="round" stroke-linejoin="round"/>
<path d="M8.46878 14.9485C4.95024 14.0549 4.65792 11.4739 4.50732 10.9683C5.01048 11.1196 7.5794 11.4133 8.46878 14.9485Z" fill="#00C3A4"/>
<path d="M8.24905 14.3272C8.31992 14.5302 8.38547 14.7455 8.44216 14.9752C4.92363 14.0816 4.6313 11.5005 4.48071 10.995C4.5941 11.0288 4.81202 11.0697 5.09017 11.1534C5.35415 12.0399 6.03801 13.5476 8.24905 14.3272Z" fill="#008C7B"/>
<path d="M8.49564 14.9485C4.9771 14.0549 4.68477 11.4739 4.53418 10.9683C5.03733 11.1196 7.60626 11.4133 8.49564 14.9485Z" stroke="#0A1F57" stroke-width="0.546445" stroke-miterlimit="10" stroke-linecap="round" stroke-linejoin="round"/>
<path d="M8.49536 9.08571L8.49794 14.9217" stroke="#0A1F57" stroke-width="0.546445" stroke-miterlimit="10" stroke-linecap="round"/>
<path d="M5.39111 4.02994V7.02793C5.39111 8.67563 6.73307 10.0239 8.37302 10.0239H8.61773C10.2577 10.0239 11.5996 8.67563 11.5996 7.02793V4.02994" fill="#E040FB"/>
<path d="M7.0507 7.02793V4.02994H5.49561V7.02793C5.49561 8.67563 6.83756 10.0239 8.47751 10.0239H8.72222C8.94719 10.0239 9.16625 9.99816 9.37741 9.95057C8.05124 9.64919 7.0507 8.44959 7.0507 7.02793Z" fill="#AA00FF"/>
<path d="M11.6016 4.03001C11.6016 4.61295 10.2123 5.08486 8.49733 5.08486C6.78238 5.08486 5.39307 4.61295 5.39307 4.03001C5.39307 3.44707 6.78238 2.97516 8.49733 2.97516C10.2103 2.97516 11.6016 3.44707 11.6016 4.03001Z" fill="#FF0053"/>
<path d="M11.6016 4.03001C11.6016 4.61295 10.2123 5.08486 8.49733 5.08486C6.78238 5.08486 5.39307 4.61295 5.39307 4.03001C5.39307 3.44707 6.78238 2.97516 8.49733 2.97516C10.2103 2.97516 11.6016 3.44707 11.6016 4.03001Z" fill="#AA00FF"/>
<path d="M11.6016 4.03001C11.6016 4.61295 10.2123 5.08486 8.49733 5.08486C6.78238 5.08486 5.39307 4.61295 5.39307 4.03001C5.39307 3.44707 6.78238 2.97516 8.49733 2.97516C10.2103 2.97516 11.6016 3.44707 11.6016 4.03001Z" stroke="#0A1F57" stroke-width="0.546445" stroke-miterlimit="10" stroke-linecap="round"/>
<path d="M5.39111 4.02994V7.02793C5.39111 8.67563 6.73307 10.0239 8.37302 10.0239H8.61773C10.2577 10.0239 11.5996 8.67563 11.5996 7.02793V4.02994" stroke="#0A1F57" stroke-width="0.546445" stroke-miterlimit="10" stroke-linecap="round"/>
<g opacity="0.54">
<g opacity="0.54">
<path opacity="0.54" d="M8.28223 3.66521C9.49196 3.66521 10.4747 3.98047 10.4747 4.37109C10.4747 4.7617 9.49393 5.07696 8.28223 5.07696" fill="#950050"/>
</g>
</g>
<path d="M8.28223 3.66521C9.49196 3.66521 10.4747 3.98047 10.4747 4.37109C10.4747 4.7617 9.49393 5.07696 8.28223 5.07696" fill="#AA00FF"/>
<path d="M8.28223 3.66521C9.49196 3.66521 10.4747 3.98047 10.4747 4.37109C10.4747 4.7617 9.49393 5.07696 8.28223 5.07696" stroke="#0A1F57" stroke-width="0.546445" stroke-miterlimit="10" stroke-linecap="round"/>
<path d="M8.28223 3.66521V5.07696" stroke="#0A1F57" stroke-width="0.546445" stroke-miterlimit="10" stroke-linecap="round"/>
</svg>
