<svg width="17" height="16" viewBox="0 0 17 16" fill="none" xmlns="http://www.w3.org/2000/svg">
<path d="M8.79746 14.6241C12.4565 14.6241 15.4228 11.6578 15.4228 7.99872C15.4228 4.33965 12.4565 1.37338 8.79746 1.37338C5.13838 1.37338 2.17212 4.33965 2.17212 7.99872C2.17212 11.6578 5.13838 14.6241 8.79746 14.6241Z" fill="white"/>
<path opacity="0.7" d="M8.79746 14.6241C12.4565 14.6241 15.4228 11.6578 15.4228 7.99872C15.4228 4.33965 12.4565 1.37338 8.79746 1.37338C5.13838 1.37338 2.17212 4.33965 2.17212 7.99872C2.17212 11.6578 5.13838 14.6241 8.79746 14.6241Z" fill="#69A1FF"/>
<path opacity="0.65" d="M4.84861 7.99974C4.84861 4.83531 7.06916 2.18921 10.0359 1.53373C9.57409 1.43087 9.09206 1.37642 8.59995 1.37642C4.94139 1.37642 1.97461 4.3432 1.97461 8.00176C1.97461 11.6603 4.94139 14.6271 8.59995 14.6271C9.09408 14.6271 9.57409 14.5706 10.0359 14.4698C7.06916 13.8103 4.84861 11.1662 4.84861 7.99974Z" fill="#448AFF"/>
<path opacity="0.65" d="M4.84861 7.99974C4.84861 4.83531 7.06916 2.18921 10.0359 1.53373C9.57409 1.43087 9.09206 1.37642 8.59995 1.37642C4.94139 1.37642 1.97461 4.3432 1.97461 8.00176C1.97461 11.6603 4.94139 14.6271 8.59995 14.6271C9.09408 14.6271 9.57409 14.5706 10.0359 14.4698C7.06916 13.8103 4.84861 11.1662 4.84861 7.99974Z" fill="#448AFF"/>
<path d="M6.1581 2.44666C6.1581 2.69541 6.4721 3.22145 6.79658 3.22145C6.98695 3.22145 7.17264 3.10702 7.35172 3.1016C7.82462 3.08729 7.90184 3.43003 7.7118 3.82067C7.51735 4.22039 8.05616 4.34255 8.26527 4.53974C8.32943 4.60024 8.35589 4.6735 8.41697 4.73449C8.49357 4.81097 8.59382 4.8735 8.64036 4.97418C8.69378 5.08975 8.79206 5.21779 8.79206 5.34869C8.79206 5.4709 8.77572 5.60429 8.80707 5.72321C8.84693 5.87446 8.8546 6.02635 8.9421 6.1643C9.0129 6.27593 9.09875 6.36727 9.15882 6.48722C9.22799 6.62535 9.2087 6.9077 9.07713 7.00988C8.92495 7.12806 8.80013 7.1164 8.61202 7.1164C8.45696 7.1164 8.2226 7.00911 8.08523 7.07146C7.96794 7.12469 7.83842 7.12576 7.71847 7.17633C7.56049 7.24293 7.39704 7.3198 7.25503 7.41602C7.05599 7.55087 7.13121 7.81595 6.97663 7.9703C6.83735 8.10936 6.58119 7.91862 6.4515 8.09847L6.44661 8.10526C6.39334 8.17913 6.3316 8.26478 6.27146 8.32817C6.20879 8.39421 6.20509 8.47258 6.1581 8.53124C6.06346 8.64935 5.98304 8.93071 6.06307 9.0772C6.11354 9.16959 6.29791 9.26755 6.39815 9.27361C6.57311 9.2842 6.71219 9.18373 6.87827 9.18373C7.10529 9.18373 7.30398 9.2771 7.48675 9.37848C7.71388 9.50447 7.84077 9.52989 8.09523 9.43008C8.26239 9.36451 8.41096 9.04882 8.50533 8.90076C8.63492 8.69743 8.83778 8.61447 9.0788 8.61447C9.38897 8.61447 9.64407 8.55134 9.94567 8.47964C10.1486 8.43141 10.462 8.43117 10.6658 8.47964C10.7985 8.51119 10.9342 8.47895 11.0659 8.51792C11.1762 8.55054 11.2511 8.58886 11.3493 8.65108C11.6534 8.84358 11.6956 9.20242 11.7344 9.53102L11.7344 9.53161C11.7344 9.53161 11.6614 10.0131 11.5977 10.1275C11.4281 10.4323 11.359 10.8673 11.4344 11.2061C11.4627 11.3335 11.5527 11.4517 11.5527 11.5806C11.5527 11.7929 11.3239 11.9077 11.3127 12.1199C11.2951 12.4525 11.3068 12.8164 11.4694 13.1087C11.5718 13.2928 11.7928 13.3185 11.7928 13.5581C11.7928 13.6376 11.7886 13.7183 11.7928 13.7978C11.9055 13.7568 11.8888 14.1415 11.8828 14.0608C11.876 13.9693 11.798 13.8974 11.7928 13.7978C11.6562 13.8474 11.659 14.2931 11.5261 14.2488C11.275 14.1653 11.0466 13.9216 10.8626 13.7378C10.7822 13.6576 10.6907 13.6084 10.6225 13.5148C10.5708 13.4439 10.5048 13.3294 10.4425 13.2734C10.3761 13.2138 10.3744 13.1063 10.3091 13.0504C10.2421 12.9931 10.176 12.9325 10.1124 12.869C9.9855 12.7423 9.88074 12.5394 9.72229 12.4562C9.54794 12.3645 9.24968 12.4195 9.06213 12.4195C8.7348 12.4195 8.2764 12.4009 8.16858 12.0134C8.1008 11.7698 7.91082 11.5594 7.78682 11.3393C7.64913 11.0949 7.62959 10.8347 7.62178 10.5619C7.61356 10.2747 7.41516 10.2207 7.17334 10.1725C6.93771 10.1254 6.69986 10.0687 6.45817 10.1491C6.23006 10.2251 6.04043 10.0999 5.88136 9.94941C5.75628 9.83109 5.64302 9.69855 5.50794 9.58821C5.43961 9.53239 5.33226 9.40557 5.31289 9.31856C5.29689 9.24664 5.22741 9.22337 5.16786 9.18373C5.02466 9.08841 4.89254 9.00905 4.7711 8.88412C4.57708 8.68453 4.71302 8.31574 4.73942 8.07849C4.76987 7.80488 4.46116 7.49605 4.28431 7.31947C4.09544 7.13089 3.90821 6.97073 3.6625 6.8634C3.39986 6.74867 3.33075 6.68987 3.33075 6.39068C3.33075 6.18495 3.47741 6.015 3.64749 5.91796C3.82364 5.81746 4.07294 5.71184 3.9459 5.48352C3.87299 5.35249 3.94232 5.10674 3.90755 4.9592C3.85152 4.72143 3.74758 4.71162 3.53913 4.65958C3.12698 4.5567 3.26814 4.40795 3.53913 3.92093C3.96574 3.86337 4.41231 3.04291 4.81611 2.93681C5.15714 2.84721 5.48314 2.74207 5.83802 2.74207C6.02251 2.74207 5.97361 2.44666 6.1581 2.44666Z" fill="#1DE9B6"/>
<path d="M11.7928 13.7978C11.7886 13.7183 11.7928 13.6376 11.7928 13.5581C11.7928 13.3185 11.5718 13.2928 11.4694 13.1087C11.3068 12.8164 11.2951 12.4525 11.3127 12.1199C11.3239 11.9077 11.5527 11.7929 11.5527 11.5806C11.5527 11.4517 11.4627 11.3335 11.4344 11.2061C11.359 10.8673 11.4281 10.4323 11.5977 10.1275C11.6614 10.0131 11.7344 9.53161 11.7344 9.53161C11.6957 9.20285 11.6536 8.8437 11.3493 8.65109C11.2511 8.58886 11.1762 8.55054 11.0659 8.51792C10.9342 8.47895 10.7985 8.51119 10.6658 8.47964C10.462 8.43117 10.1486 8.43141 9.94567 8.47964C9.64407 8.55134 9.38897 8.61447 9.0788 8.61447C8.83778 8.61447 8.63492 8.69743 8.50533 8.90076C8.41096 9.04882 8.26239 9.36451 8.09523 9.43008C7.84077 9.52989 7.71388 9.50447 7.48675 9.37848C7.30398 9.2771 7.10529 9.18373 6.87827 9.18373C6.71219 9.18373 6.57311 9.2842 6.39815 9.27361C6.29791 9.26755 6.11354 9.16959 6.06307 9.0772C5.98304 8.93071 6.06346 8.64935 6.1581 8.53124C6.20509 8.47258 6.20879 8.39421 6.27146 8.32817C6.33345 8.26283 6.39715 8.17384 6.4515 8.09847C6.58119 7.91862 6.83735 8.10936 6.97663 7.9703C7.13121 7.81595 7.05599 7.55087 7.25503 7.41602C7.39704 7.3198 7.56049 7.24293 7.71847 7.17633C7.83842 7.12576 7.96794 7.12469 8.08523 7.07146C8.2226 7.00911 8.45696 7.1164 8.61202 7.1164C8.80013 7.1164 8.92495 7.12806 9.07713 7.00988C9.2087 6.9077 9.22799 6.62535 9.15882 6.48722C9.09875 6.36727 9.0129 6.27593 8.9421 6.1643C8.8546 6.02635 8.84693 5.87446 8.80707 5.72321C8.77572 5.60429 8.79206 5.4709 8.79206 5.34869C8.79206 5.21779 8.69378 5.08975 8.64036 4.97418C8.59382 4.8735 8.49357 4.81097 8.41697 4.73449C8.35589 4.6735 8.32943 4.60024 8.26527 4.53974C8.05616 4.34255 7.51735 4.22039 7.7118 3.82067C7.90184 3.43003 7.82462 3.08729 7.35172 3.1016C7.17264 3.10702 6.98695 3.22145 6.79658 3.22145C6.4721 3.22145 6.1581 2.69541 6.1581 2.44666C5.97361 2.44666 6.02251 2.74207 5.83802 2.74207C5.48314 2.74207 5.15714 2.84721 4.81611 2.93681C4.41231 3.04291 3.96574 3.86337 3.53913 3.92093M11.7928 13.7978C11.798 13.8974 11.876 13.9693 11.8828 14.0608C11.8888 14.1415 11.9055 13.7568 11.7928 13.7978ZM11.7928 13.7978C11.6562 13.8474 11.659 14.2931 11.5261 14.2488C11.275 14.1653 11.0466 13.9216 10.8626 13.7378C10.7822 13.6576 10.6907 13.6084 10.6225 13.5148C10.5708 13.4439 10.5048 13.3294 10.4425 13.2734C10.3761 13.2138 10.3744 13.1063 10.3091 13.0504C10.2421 12.9931 10.176 12.9325 10.1124 12.869C9.9855 12.7423 9.88074 12.5394 9.72229 12.4562C9.54794 12.3645 9.24968 12.4195 9.06213 12.4195C8.7348 12.4195 8.2764 12.4009 8.16858 12.0134C8.1008 11.7698 7.91082 11.5594 7.78682 11.3393C7.64913 11.0949 7.62959 10.8347 7.62178 10.5619C7.61356 10.2747 7.41517 10.2207 7.17334 10.1725C6.93771 10.1254 6.69986 10.0687 6.45817 10.1491C6.23006 10.2251 6.04043 10.0999 5.88136 9.94941C5.75628 9.83109 5.64302 9.69855 5.50794 9.58821C5.43961 9.53239 5.33226 9.40557 5.31289 9.31856C5.29689 9.24664 5.22741 9.22337 5.16786 9.18373C5.02466 9.08841 4.89254 9.00905 4.7711 8.88412C4.57708 8.68453 4.71302 8.31574 4.73942 8.07849C4.76987 7.80488 4.46116 7.49605 4.28431 7.31947C4.09544 7.13089 3.90821 6.97073 3.6625 6.8634C3.39986 6.74867 3.33075 6.68987 3.33075 6.39068C3.33075 6.18495 3.47741 6.015 3.64749 5.91796C3.82364 5.81746 4.07294 5.71184 3.9459 5.48352C3.87299 5.35249 3.94232 5.10674 3.90755 4.9592C3.85152 4.72143 3.74758 4.71162 3.53913 4.65958C3.12698 4.5567 3.26814 4.40795 3.53913 3.92093M3.53913 3.92093C3.76942 3.91209 3.3101 3.95183 3.53913 3.92093Z" stroke="#1DE9B6" stroke-width="0.129327" stroke-linecap="round" stroke-linejoin="round"/>
<path d="M13.024 3.75406C13.12 3.7387 13.2102 3.60625 13.2897 3.55482C13.3447 3.58235 13.3887 3.65864 13.4567 3.6635C13.5164 3.66776 13.6053 3.67639 13.6519 3.71783C13.7803 3.83197 13.9158 3.94396 14.0383 4.06799C14.1464 4.17746 14.2044 4.29604 14.2798 4.42721C14.384 4.60853 14.5099 4.77707 14.6159 4.95749C14.6937 5.09008 14.7598 5.23194 14.8111 5.37708C14.8761 5.56137 14.9857 5.71904 15.0687 5.89528C15.1503 6.06888 15.1957 6.25695 15.284 6.42656C15.3832 6.6172 15.4786 6.78351 15.4953 7.00212C15.5122 7.22443 15.5724 7.56733 15.3182 7.68031C15.1639 7.7489 14.8987 7.63559 14.8151 7.50321C14.7337 7.37427 14.4782 7.31683 14.3361 7.32209C14.229 7.32606 14.199 7.41573 14.151 7.48913C14.1115 7.54955 14.0569 7.58186 14.0141 7.63C13.9969 7.64938 13.9903 7.68963 13.9679 7.70244C13.9018 7.7402 13.8339 7.77017 13.7626 7.79703C13.6112 7.85409 13.6002 7.84836 13.5573 7.70244C13.5343 7.6242 13.461 7.55593 13.4165 7.48913C13.3453 7.38234 13.2671 7.30743 13.175 7.21745C13.1134 7.1573 13.0122 7.11543 12.9637 7.04639C12.8889 6.94015 12.7856 6.85979 12.6819 6.78276C12.5963 6.71915 12.5229 6.73159 12.4746 6.61976C12.4184 6.48954 12.4101 6.38114 12.3881 6.24343C12.3455 5.97731 12.4453 5.67579 12.3619 5.41632C12.2995 5.22199 12.1036 5.09048 12.0259 4.89913C11.9786 4.78282 11.9856 4.65179 11.9856 4.52884C11.9856 4.38469 11.888 4.20789 11.9353 4.06598C11.9633 3.98188 12.0215 3.90381 12.0842 3.84461C12.1541 3.77858 12.2359 3.77217 12.3358 3.77217C12.4674 3.77217 12.5914 3.77495 12.7222 3.77217C12.8243 3.76999 12.9227 3.77027 13.024 3.75406Z" fill="#1DE9B6" stroke="#1DE9B6" stroke-width="0.129327" stroke-linecap="round" stroke-linejoin="round"/>
<path d="M13.065 5.13088C12.6411 4.24041 11.9725 3.54459 11.1758 3.08626" stroke="white" stroke-width="0.552204" stroke-miterlimit="10" stroke-linecap="round" stroke-linejoin="round"/>
<g opacity="0.65">
<path fill-rule="evenodd" clip-rule="evenodd" d="M6.89489 3.21233C5.6341 4.41794 4.84862 6.11664 4.84862 7.99869C4.84862 8.34596 4.87533 8.68694 4.9268 9.01971C4.87306 8.97938 4.82117 8.93561 4.77109 8.88409C4.61997 8.72863 4.66903 8.47052 4.71059 8.25188C4.72238 8.18981 4.73358 8.13092 4.73941 8.07847C4.76986 7.80485 4.46115 7.49603 4.28431 7.31945C4.09543 7.13087 3.9082 6.97071 3.66249 6.86338C3.39986 6.74865 3.33075 6.68985 3.33075 6.39066C3.33075 6.18493 3.47741 6.01498 3.64749 5.91794C3.66447 5.90825 3.68212 5.89852 3.70006 5.88863C3.86819 5.79594 4.06069 5.68982 3.94589 5.4835C3.90368 5.40763 3.90916 5.29328 3.9145 5.18182C3.91838 5.10079 3.92219 5.02129 3.90755 4.95918C3.85517 4.73689 3.7609 4.71385 3.57849 4.66926C3.5658 4.66616 3.55269 4.66296 3.53913 4.65957C3.17103 4.56769 3.24429 4.43922 3.45721 4.06584C3.48269 4.02116 3.51016 3.97297 3.53913 3.92092C3.76338 3.89066 3.99316 3.64959 4.21933 3.4123C4.42342 3.19818 4.62457 2.98714 4.8161 2.93681C4.86654 2.92356 4.91665 2.90996 4.96658 2.89642C5.2542 2.8184 5.53562 2.74206 5.83801 2.74206C5.93025 2.74206 5.96415 2.66821 5.99804 2.59436C6.03194 2.52051 6.06584 2.44666 6.15808 2.44666C6.15808 2.69541 6.47208 3.22144 6.79657 3.22144C6.82948 3.22144 6.86226 3.21802 6.89489 3.21233Z" fill="#00BFA5"/>
<path d="M6.89489 3.21233L6.93957 3.25907L7.09325 3.11212L6.88378 3.14863L6.89489 3.21233ZM4.9268 9.01971L4.88799 9.07143L5.01498 9.16674L4.99071 9.00983L4.9268 9.01971ZM4.77109 8.88409L4.81746 8.83902L4.77109 8.88409ZM4.71059 8.25188L4.64706 8.2398L4.71059 8.25188ZM4.73941 8.07847L4.67515 8.07131L4.73941 8.07847ZM4.28431 7.31945L4.23862 7.36521H4.23862L4.28431 7.31945ZM3.66249 6.86338L3.63661 6.92263L3.66249 6.86338ZM3.64749 5.91794L3.67954 5.9741H3.67954L3.64749 5.91794ZM3.70006 5.88863L3.73128 5.94526L3.70006 5.88863ZM3.94589 5.4835L3.88939 5.51494L3.94589 5.4835ZM3.9145 5.18182L3.84991 5.17872L3.9145 5.18182ZM3.90755 4.95918L3.97049 4.94435L3.90755 4.95918ZM3.57849 4.66926L3.59385 4.60645H3.59385L3.57849 4.66926ZM3.53913 4.65957L3.52347 4.72231L3.52347 4.72231L3.53913 4.65957ZM3.45721 4.06584L3.51338 4.09787H3.51338L3.45721 4.06584ZM3.53913 3.92092L3.53048 3.85684L3.49837 3.86117L3.48262 3.88948L3.53913 3.92092ZM4.21933 3.4123L4.26614 3.45691L4.21933 3.4123ZM4.8161 2.93681L4.79967 2.87427L4.8161 2.93681ZM4.96658 2.89642L4.98351 2.95883L4.96658 2.89642ZM6.15808 2.44666H6.22275V2.38199H6.15808V2.44666ZM4.91329 7.99869C4.91329 6.13502 5.69101 4.45299 6.93957 3.25907L6.8502 3.1656C5.57719 4.38289 4.78396 6.09826 4.78396 7.99869H4.91329ZM4.99071 9.00983C4.93974 8.68032 4.91329 8.34264 4.91329 7.99869H4.78396C4.78396 8.34928 4.81092 8.69357 4.8629 9.0296L4.99071 9.00983ZM4.72472 8.92916C4.77766 8.98362 4.83223 9.02958 4.88799 9.07143L4.96562 8.96799C4.9139 8.92918 4.86468 8.8876 4.81746 8.83902L4.72472 8.92916ZM4.64706 8.2398C4.62654 8.34775 4.6024 8.47353 4.60393 8.59251C4.60547 8.71227 4.63302 8.83483 4.72472 8.92916L4.81746 8.83902C4.75804 8.7779 4.73457 8.69367 4.73324 8.59085C4.73191 8.48725 4.75307 8.37465 4.77411 8.26395L4.64706 8.2398ZM4.67515 8.07131C4.66964 8.1208 4.65899 8.17706 4.64706 8.2398L4.77411 8.26395C4.78578 8.20255 4.79751 8.14104 4.80368 8.08562L4.67515 8.07131ZM4.23862 7.36521C4.32751 7.45397 4.44511 7.57172 4.537 7.70019C4.63046 7.83084 4.6876 7.95946 4.67515 8.07131L4.80368 8.08562C4.82168 7.92386 4.73969 7.76126 4.64219 7.62495C4.54313 7.48646 4.41795 7.36151 4.33 7.27369L4.23862 7.36521ZM3.63661 6.92263C3.87129 7.02515 4.05172 7.1786 4.23862 7.36521L4.33 7.27369C4.13915 7.08314 3.94512 6.91627 3.68838 6.80412L3.63661 6.92263ZM3.26609 6.39066C3.26609 6.54245 3.28285 6.65072 3.34651 6.73513C3.40835 6.81713 3.50751 6.86624 3.63661 6.92263L3.68838 6.80412C3.55485 6.74579 3.48813 6.70814 3.44976 6.65726C3.41321 6.60879 3.39541 6.53806 3.39541 6.39066H3.26609ZM3.61545 5.86177C3.43444 5.96505 3.26609 6.15273 3.26609 6.39066H3.39541C3.39541 6.21713 3.52038 6.06491 3.67954 5.9741L3.61545 5.86177ZM3.66884 5.832C3.65099 5.84185 3.63291 5.85181 3.61545 5.86177L3.67954 5.9741C3.69603 5.96469 3.71326 5.95519 3.73128 5.94526L3.66884 5.832ZM3.88939 5.51494C3.91312 5.55759 3.918 5.58947 3.9153 5.61361C3.91257 5.63789 3.90135 5.66168 3.87999 5.68659C3.8344 5.73976 3.75611 5.78389 3.66884 5.832L3.73128 5.94526C3.81214 5.90068 3.91417 5.84541 3.97817 5.77077C4.0116 5.73177 4.03748 5.68455 4.04382 5.62802C4.05017 5.57133 4.03607 5.51257 4.0024 5.45206L3.88939 5.51494ZM3.84991 5.17872C3.84727 5.23365 3.84432 5.29381 3.84782 5.35003C3.8513 5.40587 3.86142 5.46467 3.88939 5.51494L4.0024 5.45206C3.98816 5.42646 3.9799 5.39015 3.9769 5.34199C3.97392 5.2942 3.97638 5.24145 3.97908 5.18491L3.84991 5.17872ZM3.84461 4.97402C3.85671 5.02536 3.85394 5.0946 3.84991 5.17872L3.97908 5.18491C3.98282 5.10698 3.98766 5.01722 3.97049 4.94435L3.84461 4.97402ZM3.56314 4.73208C3.65835 4.75535 3.71306 4.7698 3.75334 4.79958C3.78907 4.82599 3.82023 4.87055 3.84461 4.97402L3.97049 4.94435C3.94249 4.82552 3.90032 4.74741 3.83022 4.69558C3.76467 4.64712 3.68104 4.62776 3.59385 4.60645L3.56314 4.73208ZM3.52347 4.72231C3.53721 4.72574 3.55047 4.72898 3.56314 4.73208L3.59385 4.60645C3.58114 4.60334 3.56817 4.60017 3.55479 4.59683L3.52347 4.72231ZM3.40103 4.03381C3.34826 4.12635 3.30229 4.20688 3.26991 4.27567C3.23811 4.34324 3.2149 4.40842 3.21563 4.46904C3.21643 4.53615 3.24626 4.59076 3.3026 4.6325C3.35474 4.67113 3.42941 4.69883 3.52347 4.72231L3.55479 4.59684C3.4648 4.57437 3.41059 4.55156 3.37959 4.52859C3.35279 4.50873 3.34522 4.49065 3.34494 4.46749C3.34459 4.43784 3.35661 4.39514 3.38692 4.33075C3.41666 4.26757 3.45969 4.19202 3.51338 4.09787L3.40103 4.03381ZM3.48262 3.88948C3.45385 3.94119 3.42653 3.9891 3.40103 4.03381L3.51338 4.09787C3.53884 4.05322 3.56648 4.00475 3.59563 3.95236L3.48262 3.88948ZM4.17253 3.36768C4.05876 3.48704 3.94756 3.60358 3.83739 3.69434C3.72633 3.78584 3.62436 3.84417 3.53048 3.85684L3.54777 3.985C3.67815 3.96741 3.8032 3.89008 3.91963 3.79416C4.03696 3.69749 4.15373 3.57485 4.26614 3.45691L4.17253 3.36768ZM4.79967 2.87427C4.68939 2.90325 4.58212 2.97646 4.48025 3.06411C4.37762 3.15242 4.27401 3.2612 4.17253 3.36768L4.26614 3.45691C4.36874 3.34927 4.46775 3.24548 4.5646 3.16215C4.6622 3.07817 4.75128 3.0207 4.83253 2.99935L4.79967 2.87427ZM4.94965 2.83401C4.89968 2.84757 4.84982 2.86109 4.79967 2.87427L4.83253 2.99935C4.88326 2.98602 4.93362 2.97236 4.98351 2.95883L4.94965 2.83401ZM5.83801 2.6774C5.52563 2.6774 5.23599 2.75634 4.94965 2.83401L4.98351 2.95883C5.2724 2.88047 5.54561 2.80673 5.83801 2.80673V2.6774ZM5.93928 2.56739C5.92135 2.60645 5.90812 2.63404 5.89125 2.65332C5.87768 2.66882 5.86318 2.6774 5.83801 2.6774V2.80673C5.90508 2.80673 5.95365 2.77838 5.98856 2.7385C6.02017 2.70238 6.04084 2.65613 6.05681 2.62133L5.93928 2.56739ZM6.15808 2.38199C6.09101 2.38199 6.04244 2.41034 6.00753 2.45022C5.97591 2.48634 5.95524 2.53259 5.93928 2.56739L6.05681 2.62133C6.07474 2.58227 6.08797 2.55468 6.10484 2.5354C6.11841 2.5199 6.13291 2.51132 6.15808 2.51132V2.38199ZM6.79657 3.15678C6.73305 3.15678 6.66547 3.13092 6.5973 3.0826C6.52934 3.03444 6.46441 2.96643 6.40782 2.88913C6.35134 2.812 6.30455 2.72752 6.27206 2.64816C6.23916 2.5678 6.22275 2.4971 6.22275 2.44666H6.09342C6.09342 2.52058 6.11625 2.60892 6.15237 2.69715C6.1889 2.78639 6.24088 2.88005 6.30347 2.96553C6.36593 3.05084 6.44035 3.12988 6.52252 3.18812C6.60449 3.24621 6.69784 3.2861 6.79657 3.2861V3.15678ZM6.88378 3.14863C6.85402 3.15382 6.82502 3.15678 6.79657 3.15678V3.2861C6.83394 3.2861 6.8705 3.28222 6.90599 3.27604L6.88378 3.14863Z" fill="#00BFA5"/>
</g>
<path d="M8.79746 14.6241C12.4565 14.6241 15.4228 11.6578 15.4228 7.99872C15.4228 4.33965 12.4565 1.37338 8.79746 1.37338C5.13838 1.37338 2.17212 4.33965 2.17212 7.99872C2.17212 11.6578 5.13838 14.6241 8.79746 14.6241Z" stroke="#0F2054" stroke-width="0.507504" stroke-miterlimit="10" stroke-linejoin="round"/>
</svg>
