<svg width="17" height="16" viewBox="0 0 17 16" fill="none" xmlns="http://www.w3.org/2000/svg">
<path d="M8.49624 14.7106C5.47778 14.7106 3.90422 14.3321 3.90422 14.3321C2.97819 14.1314 2.74711 13.4919 3.43697 13.0615C4.09551 12.6499 5.60898 12.718 5.60898 6.51384C5.60898 5.54602 7.80977 5.26282 8.49624 5.26282C9.18272 5.26282 11.3835 5.54602 11.3835 6.51384C11.3835 12.718 12.897 12.6508 13.5555 13.0615C14.2454 13.4919 14.0143 14.1323 13.0883 14.3321C13.0883 14.3321 11.5139 14.7106 8.49624 14.7106Z" fill="white"/>
<path d="M7.60821 1.78506H3.12538V4.28606H2.57349V5.83015H4.9478V5.1917L5.76294 4.55402V3.91868H7.60821V1.78506Z" fill="#F88B5C"/>
<path opacity="0.54" d="M3.28028 4.93383H3.83217V2.43284H7.60821V1.78506H3.12538V4.28606H2.57349V5.83015H3.28028V4.93383Z" fill="#F78257"/>
<path d="M7.60821 1.78506H3.12538V4.28606H2.57349V5.83015H4.9478V5.1917L5.76294 4.55402V3.91868H7.60821V1.78506Z" stroke="#0F2054" stroke-width="0.43707" stroke-miterlimit="10" stroke-linecap="round" stroke-linejoin="round"/>
<path d="M9.30786 1.78508H13.7907V4.28608H14.3426V5.83017H11.9683V5.19172L11.1531 4.55404V3.91869H9.30786V1.78508Z" fill="#F88B5C"/>
<path opacity="0.54" d="M13.6358 4.93385H13.0848V2.43285H9.30786V1.78508H13.7907V4.28608H14.3426V5.83017H13.6358V4.93385Z" fill="#F99562"/>
<path d="M9.30786 1.78506H13.7907V4.28606H14.3426V5.83015H11.9683V5.1917L11.1531 4.55402V3.91868H9.30786V1.78506Z" stroke="#0F2054" stroke-width="0.43707" stroke-miterlimit="10" stroke-linecap="round" stroke-linejoin="round"/>
<path opacity="0.55" d="M8.49624 14.7106C5.47778 14.7106 3.90422 14.3321 3.90422 14.3321C2.97819 14.1314 2.74711 13.4919 3.43697 13.0615C4.09551 12.6499 5.60898 12.718 5.60898 6.51384C5.60898 5.54602 7.80977 5.26282 8.49624 5.26282C9.18272 5.26282 11.3835 5.54602 11.3835 6.51384C11.3835 12.718 12.897 12.6508 13.5555 13.0615C14.2454 13.4919 14.0143 14.1323 13.0883 14.3321C13.0883 14.3321 11.5139 14.7106 8.49624 14.7106Z" fill="#FFCC80"/>
<path d="M13.0881 12.7352C13.2202 12.7012 13.3361 12.657 13.4394 12.6043C13.326 12.6468 13.072 12.7233 13.0881 12.7352Z" fill="#F77E53"/>
<path opacity="0.96" d="M13.0884 12.9059C13.0884 12.9059 11.5139 13.3524 8.49633 13.3524C7.32145 13.3524 6.3658 13.2844 5.63615 13.2019C6.17281 12.4798 6.6519 10.9745 6.6519 7.48337C6.6519 6.51555 8.85269 6.23234 9.53917 6.23234C9.92261 6.23234 10.7801 6.32079 11.4615 6.56827C11.4615 6.54956 11.4615 6.5317 11.4615 6.51384C11.4615 5.54602 9.26068 5.26282 8.5742 5.26282C7.88773 5.26282 5.68694 5.54602 5.68694 6.51384C5.68694 11.8063 4.5857 12.5343 3.85267 12.8897C3.75617 12.8523 3.76971 12.8039 3.66983 12.7477C3.64782 12.7622 3.62582 12.7766 3.6055 12.7919C3.33718 12.9901 3.18227 13.2257 3.14841 13.4545C3.00621 13.8133 3.31263 14.1876 3.98217 14.333C3.98217 14.333 4.0355 14.3457 4.14131 14.367C4.14385 14.3627 4.14639 14.3585 4.14893 14.3542C4.69743 14.4759 6.16603 14.7421 8.49633 14.7421C11.5148 14.7421 13.0884 14.2956 13.0884 14.2956C14.5155 13.8414 13.7782 13.4145 13.0884 12.9059Z" fill="#FF936C"/>
<path d="M13.4913 12.577C13.4744 12.5864 13.4566 12.5949 13.4397 12.6042C13.4744 12.5906 13.4964 12.5804 13.4913 12.577Z" fill="#F77E53"/>
<path d="M13.0884 12.865C13.0884 12.865 11.5139 13.2435 8.49633 13.2435C5.47871 13.2435 3.9043 12.865 3.9043 12.865" stroke="#0F2054" stroke-width="0.43707" stroke-miterlimit="10" stroke-linecap="round" stroke-linejoin="round"/>
<path d="M7.37305 8.32784V9.98708L8.30161 11.2134V11.8113L8.43874 12.3182L8.98894 12.5257V13.2409L9.43586 13.9528V14.6204" stroke="#0F2054" stroke-width="0.368087" stroke-miterlimit="10" stroke-linecap="round" stroke-linejoin="round"/>
<path d="M9.5575 3.91867L10.0205 1.79205L9.24516 1.25845H8.51213H8.45795H7.67075L6.89624 1.79205L7.35841 3.91867H9.5575Z" fill="#F88B5C"/>
<path opacity="0.54" d="M8.39878 1.6538H9.18683H9.24015H9.86569L9.29179 1.25845H8.55876H8.50458H7.71738L6.94287 1.79205L7.40504 3.91867H8.00094L7.62427 2.18739L8.39878 1.6538Z" fill="#F78257"/>
<path d="M9.5575 3.91867L10.0205 1.79205L9.24516 1.25845H8.51213H8.45795H7.67075L6.89624 1.79205L7.35841 3.91867H9.5575Z" stroke="#FFCC80" stroke-width="0.0920218" stroke-miterlimit="10"/>
<path d="M9.5575 3.91867L10.0205 1.79205L9.24516 1.25845H8.51213H8.45795H7.67075L6.89624 1.79205L7.35841 3.91867H9.5575Z" stroke="#0F2054" stroke-width="0.43707" stroke-miterlimit="10" stroke-linecap="round" stroke-linejoin="round"/>
<path d="M6.89624 1.79208L7.62335 5.13658" stroke="#0F2054" stroke-width="0.368087" stroke-miterlimit="10" stroke-linecap="round" stroke-linejoin="round"/>
<path d="M10.0207 1.79208L9.29272 5.13658" stroke="#0F2054" stroke-width="0.368087" stroke-miterlimit="10" stroke-linecap="round" stroke-linejoin="round"/>
<path d="M8.49624 14.7106C5.47778 14.7106 3.90422 14.3321 3.90422 14.3321C2.97819 14.1314 2.74711 13.4919 3.43697 13.0615C4.09551 12.6499 5.60898 12.718 5.60898 6.51384C5.60898 5.54602 7.80977 5.26282 8.49624 5.26282C9.18272 5.26282 11.3835 5.54602 11.3835 6.51384C11.3835 12.718 12.897 12.6508 13.5555 13.0615C14.2454 13.4919 14.0143 14.1323 13.0883 14.3321C13.0883 14.3321 11.5139 14.7106 8.49624 14.7106Z" stroke="#0F2054" stroke-width="0.470436" stroke-miterlimit="10" stroke-linecap="round" stroke-linejoin="round"/>
</svg>
