<svg fill="none" height="144" viewBox="0 0 68 144" width="68" xmlns="http://www.w3.org/2000/svg" xmlns:xlink="http://www.w3.org/1999/xlink"><clipPath id="a"><path d="m0 0h68v144h-68z"/></clipPath><clipPath id="b"><path d="m-159-33h348v339h-348z"/></clipPath><g clip-path="url(#a)"><g clip-path="url(#b)"><path d="m-15.1366 113.017h45.1312v8.599h-45.1312z" fill="#fff"/><path d="m-23.4015 128.31c-2.3821-.34-4.0381-2.552-3.692-4.934.4276-2.979 3.1898-5.049 6.1691-4.622 3.7259.536 6.3116 3.991 5.7754 7.71-.6718 4.655-4.9882 7.886-9.637 7.214-5.8162-.835-9.8542-6.23-9.0195-12.053.9841-6.827 6.9835-11.646 13.7294-11.354h54.7072c6.7459-.292 12.7453 4.527 13.7293 11.354.8348 5.816-3.2032 11.211-9.0194 12.053-4.6556.672-8.972-2.559-9.637-7.214-.5362-3.726 2.0495-7.174 5.7754-7.71 2.9793-.427 5.7415 1.643 6.1691 4.622.3393 2.382-1.3099 4.594-3.692 4.934" fill="#fff"/><g stroke="#0f2054" stroke-width="2.71466"><path d="m-15 136h45v168h-45z" stroke-linejoin="round" stroke-miterlimit="10"/><path d="m-15.4001 128.289h45.457v7.561h-45.457z" stroke-linejoin="round" stroke-miterlimit="10"/><path d="m-15.3996 128.289h45.0837" stroke-linejoin="round" stroke-miterlimit="10"/><path d="m33.1245 118.7h-51.6464" stroke-linejoin="round" stroke-miterlimit="10"/><path d="m36.0972 118.7h-57.5847" stroke-linejoin="round" stroke-miterlimit="10"/><path d="m-23.4015 128.31c-2.3821-.34-4.0381-2.552-3.692-4.934.4276-2.979 3.1897-5.049 6.1691-4.622 3.7259.536 6.3116 3.991 5.7754 7.71-.6718 4.655-4.9882 7.886-9.637 7.214-5.8162-.835-9.8542-6.23-9.0195-12.053.9841-6.827 6.9835-11.646 13.7294-11.354h54.7072c6.7459-.292 12.7453 4.527 13.7293 11.354.8348 5.816-3.2032 11.211-9.0194 12.053-4.6556.672-8.972-2.559-9.637-7.214-.5362-3.726 2.0495-7.174 5.7754-7.71 2.9793-.427 5.7415 1.643 6.1691 4.622.3393 2.382-1.3099 4.594-3.692 4.934" stroke-linecap="round" stroke-linejoin="round" stroke-miterlimit="10"/></g><path d="m-15.5901 123.837v-5.137h22.73525v-8.422h27.48595c6.7459-.292 12.7453 4.526 13.7293 11.354.8348 5.816-3.2032 11.211-9.0194 12.053-4.0109.577-7.7639-1.744-9.1552-5.375l-.1221 7.54h-.1901v169.276h-22.72845v-163.637-.502h-22.72845v-5.137h22.72845v-3.78h-22.72845v-3.781h22.72845v-4.452z" fill="#303f9f" opacity=".15"/><path d="m40.4543 110.264s1.8799.787 2.7146 1.507c-.0203-.034-.0407-.068-.061-.102-4.3978.97-17.6792 3.916-36.35609 3.916-24.20121 0-35.31771-4.391-35.31771-4.391l7.8046-.923 6.2438.047 14.883074-.936h32.087226l5.8976 1.751z" fill="#303f9f" opacity=".15"/><path d="m7.42995 115.901c24.20115 0 36.81755-3.02 36.81755-3.02 7.4246-1.601 9.2773-6.705 3.7462-10.139-5.28-3.2847-17.4145-2.742-17.4145-52.2503 0-7.7232-17.6453-9.9832-23.14925-9.9832-5.50397 0-23.14925 2.26-23.14925 9.9832 0 49.5083-12.1345 48.9724-17.4145 52.2503-5.5311 3.434-3.6784 8.544 3.7462 10.139 0 0 12.6164 3.02 36.81755 3.02z" fill="#fff"/><path d="m14.5422 11.2715h35.9489v21.853h4.4181v13.4918h-19.0298v-5.5718l-6.5355-5.5786v-5.5515h-14.8017z" fill="#f50057"/><path d="m49.2491 38.7913h-4.4249v-21.853h-30.282v-5.6668h35.9489v21.853h4.4181v13.4918h-5.6601z" fill="#880e4f" opacity=".54"/><path d="m14.5422 11.2715h35.9489v21.853h4.4181v13.4918h-19.0298v-5.5718l-6.5355-5.5786v-5.5515h-14.8017z" stroke="#0f2054" stroke-linecap="round" stroke-linejoin="round" stroke-miterlimit="10" stroke-width="2.71466"/><path d="m29.3449 29.9144 3.7326-2.7486-1.8663-2.6672 4.9746-3.1151" stroke="#0f2054" stroke-linecap="round" stroke-linejoin="round" stroke-miterlimit="10" stroke-width="2.71466"/><path d="m44.75 46.6162v-5.5514l-2.226-1.2352" stroke="#0f2054" stroke-linecap="round" stroke-linejoin="round" stroke-miterlimit="10" stroke-width="2.71466"/><path d="m.921875 11.2715h-35.948875v21.853h-4.4181v13.4918h19.0298v-5.5718l6.5423-5.5786v-5.5515h14.794875z" fill="#f50057"/><path d="m-33.7782 38.7913h4.4181v-21.853h30.281975v-5.6668h-35.948875v21.853h-4.4181v13.4918h5.6669z" fill="#880e4f" opacity=".54"/><path d="m.921875 11.2715h-35.948875v21.853h-4.4181v13.4918h19.0298v-5.5718l6.5423-5.5786v-5.5515h14.794875z" stroke="#0f2054" stroke-linecap="round" stroke-linejoin="round" stroke-miterlimit="10" stroke-width="2.71466"/><path d="m7.42995 115.901c24.20115 0 36.81755-3.02 36.81755-3.02 7.4246-1.601 9.2773-6.705 3.7462-10.139-5.28-3.2847-17.4145-2.742-17.4145-52.2503 0-7.7232-17.6453-9.9832-23.14925-9.9832-5.50397 0-23.14925 2.26-23.14925 9.9832 0 49.5083-12.1345 48.9724-17.4145 52.2503-5.5311 3.434-3.6784 8.544 3.7462 10.139 0 0 12.6164 3.02 36.81755 3.02z" fill="#ffcc80" opacity=".55"/><path d="m-29.3876 101.493s12.6231 3.563 36.81752 3.563c9.41988 0 17.08198-.543 22.93208-1.201-4.3027-5.7618-8.144-17.7742-8.144-45.6334 0-7.7232-17.64526-9.9831-23.149232-9.9831-3.074348 0-9.949168.7058-15.412468 2.6807 0-.1493 0-.2918 0-.4343 0-7.7232 17.64528-9.9832 23.14925-9.9832 5.50395 0 23.14925 2.26 23.14925 9.9832 0 42.2333 8.8294 48.0426 14.7067 50.8791.7736-.298.665-.685 1.4659-1.133.1764.115.3529.231.5158.353 2.1513 1.581 3.3933 3.461 3.6647 5.287 1.1402 2.864-1.3166 5.85-6.6848 7.01 0 0-.4276.102-1.2759.272-.0204-.034-.0407-.068-.0611-.102-4.3977.97-16.1725 3.095-34.85618 3.095-24.20122 0-36.81752-3.563-36.81752-3.563-11.4423-3.618-5.5311-7.025 0-11.09z" fill="#f67e53" opacity=".96"/><path d="m16.918 64.7299c.4208-10.4107-19.80338-13.6275-25.30735-13.6275-2.09025 0-3.78015-.4819-7.75035.3461.0204-1.4388.0339 1.5338.0339 0 0-7.7232 17.64531-9.9832 23.14928-9.9832 5.50392 0 23.14922 2.26 23.14922 9.9832 0 49.5085 12.1345 48.9725 17.4146 52.2505 5.5311 3.434 3.6783 8.544-3.7463 10.139 0 0-4.1059.977-12.1141 1.826-5.8705-2.81-16.5527-8.443-14.8289-50.9341z" fill="#ffcc80" opacity=".55"/><path d="m7.42995 115.901c24.20115 0 36.81755-3.02 36.81755-3.02 7.4246-1.601 9.2773-6.705 3.7462-10.139-5.28-3.2847-17.4145-2.742-17.4145-52.2503 0-7.7232-17.6453-9.9832-23.14925-9.9832-5.50397 0-23.14925 2.26-23.14925 9.9832 0 49.5083-12.1345 48.9724-17.4145 52.2503-5.5311 3.434-3.6784 8.544 3.7462 10.139 0 0 12.6164 3.02 36.81755 3.02z" stroke="#0f2054" stroke-linecap="round" stroke-linejoin="round" stroke-miterlimit="10" stroke-width="2.71466"/><path d="m-29.3875 101.174s12.6231 3.02 36.81751 3.02c24.19439 0 36.81759-3.02 36.81759-3.02" stroke="#0f2054" stroke-linecap="round" stroke-linejoin="round" stroke-miterlimit="10" stroke-width="2.71466"/><path d="m16.429 64.9675v13.234l-7.4382 9.7863v4.771l-1.09944 4.0517-4.41132 1.6559v5.7076l-3.583351 5.68v5.328" stroke="#0f2054" stroke-linecap="round" stroke-linejoin="round" stroke-miterlimit="10" stroke-width="2.71466"/><path d="m-1.08013 29.9145-3.7123-18.5751 6.20978-4.6624h5.88403.43434 6.31158l6.2098 4.6624-3.7055 18.5751z" fill="#f50057"/><path d="m8.20372 10.1314h-6.31158-.43433-5.01534l4.60134-3.4544h5.88402.43435 6.31162l6.2097 4.6624-3.7055 18.5751h-4.7778l3.0201-15.1207z" fill="#880e4f" opacity=".54"/><path d="m-1.08013 29.9145-3.7123-18.5751 6.20978-4.6624h5.88403.43434 6.31158l6.2098 4.6624-3.7055 18.5751z" stroke="#ffcc80" stroke-miterlimit="10" stroke-width=".678665"/><path d="m-1.08013 29.9145-3.7123-18.5751 6.20978-4.6624h5.88403.43434 6.31158l6.2098 4.6624-3.7055 18.5751z" stroke="#0f2054" stroke-linecap="round" stroke-linejoin="round" stroke-miterlimit="10" stroke-width="2.71466"/><path d="m20.2571 11.3394-5.8297 29.2165" stroke="#0f2054" stroke-linecap="round" stroke-linejoin="round" stroke-miterlimit="10" stroke-width="2.71466"/><path d="m-4.79331 11.3394 5.83652 29.2165" stroke="#0f2054" stroke-linecap="round" stroke-linejoin="round" stroke-miterlimit="10" stroke-width="2.71466"/><path d="m7.73584 39.8298v-9.9152" stroke="#0f2054" stroke-linecap="round" stroke-linejoin="round" stroke-miterlimit="10" stroke-width="2.71466"/></g></g></svg>