<svg width="32" height="32" viewBox="0 0 32 32" fill="none" xmlns="http://www.w3.org/2000/svg">
    <path fill-rule="evenodd" clip-rule="evenodd" d="M28.428 31.0588H4.24119C2.56546 31.0588 1.20731 29.7387 1.20731 28.1099V3.89003C1.20731 2.26125 2.56546 0.941162 4.24119 0.941162H28.428C30.1034 0.941162 31.4619 2.26125 31.4619 3.89003V28.1099C31.4619 29.7387 30.1034 31.0588 28.428 31.0588" fill="#FF4081"/>
    <path fill-rule="evenodd" clip-rule="evenodd" d="M28.428 31.0588H4.24119C2.56546 31.0588 1.20731 29.7387 1.20731 28.1099V3.89003C1.20731 2.26125 2.56546 0.941162 4.24119 0.941162H28.428C30.1034 0.941162 31.4619 2.26125 31.4619 3.89003V28.1099C31.4619 29.7387 30.1034 31.0588 28.428 31.0588Z" stroke="#0F2054" stroke-linecap="round" stroke-linejoin="round"/>
    <path fill-rule="evenodd" clip-rule="evenodd" d="M22.5163 27.6584H7.39836C5.85478 27.6584 4.59218 26.4311 4.59218 24.9308V9.98366C4.59218 8.48362 5.85478 7.2561 7.39836 7.2561H22.5163C24.0595 7.2561 25.3221 8.48362 25.3221 9.98366V24.9308C25.3221 26.4311 24.0595 27.6584 22.5163 27.6584" fill="#CC1B63"/>
    <path fill-rule="evenodd" clip-rule="evenodd" d="M7.57028 5.28406H26.2367C26.8043 5.28406 27.2686 5.73537 27.2686 6.28707V24.6833C27.2686 25.235 26.8043 25.6863 26.2367 25.6863H7.57028C7.00267 25.6863 6.53835 25.235 6.53835 24.6833V6.28707C6.53835 5.73537 7.00267 5.28406 7.57028 5.28406" fill="white"/>
    <mask id="mask0" mask-type="alpha" maskUnits="userSpaceOnUse" x="6" y="5" width="22" height="21">
        <path fill-rule="evenodd" clip-rule="evenodd" d="M7.57034 5.2843C7.00273 5.2843 6.53841 5.73533 6.53841 6.28703V24.6835C6.53841 25.235 7.00273 25.6866 7.57034 25.6866H26.2367C26.8043 25.6866 27.2687 25.235 27.2687 24.6835V6.28703C27.2687 5.73533 26.8043 5.2843 26.2367 5.2843" fill="white"/>
    </mask>
    <g mask="url(#mask0)">
        <path fill-rule="evenodd" clip-rule="evenodd" d="M11.5613 12.2175L10.8907 12.403C10.1528 12.6069 9.72066 13.3606 9.93049 14.0778C10.1406 14.7949 10.916 15.2147 11.6538 15.0108L11.8089 14.9679L11.1383 15.1534C10.4005 15.3573 9.9683 16.111 10.1781 16.8282C10.388 17.5453 11.1633 17.9651 11.9012 17.7612L12.3301 17.6426L11.6595 17.828C10.9216 18.032 10.4895 18.7856 10.6993 19.5028C10.9091 20.22 11.6845 20.6397 12.4224 20.4361L15.9453 19.4623C16.4325 19.3275 16.9397 19.602 17.0781 20.0756L17.7663 22.4276C17.9761 23.1448 18.7515 23.5646 19.4893 23.3606C20.2272 23.1567 20.659 22.403 20.4492 21.6859L19.7611 19.3341C19.6227 18.8605 19.9051 18.3675 20.3924 18.233L24.184 17.1849L21.1323 6.75317L16.5355 8.02379L10.5692 9.67311C9.83138 9.87707 9.3992 10.6307 9.60904 11.3479C9.81888 12.0651 10.5942 12.4849 11.3321 12.2809" fill="#FFE6BF"/>
    </g>
    <mask id="mask1" mask-type="alpha" maskUnits="userSpaceOnUse" x="6" y="5" width="22" height="21">
        <path fill-rule="evenodd" clip-rule="evenodd" d="M7.57034 5.2843C7.00273 5.2843 6.53841 5.73533 6.53841 6.28703V24.6835C6.53841 25.235 7.00273 25.6866 7.57034 25.6866H26.2367C26.8043 25.6866 27.2687 25.235 27.2687 24.6835V6.28703C27.2687 5.73533 26.8043 5.2843 26.2367 5.2843H7.57034Z" fill="white"/>
    </mask>
    <g mask="url(#mask1)">
        <path fill-rule="evenodd" clip-rule="evenodd" d="M15.2382 11.2013L16.9634 10.7245L19.3353 18.832L21.3125 17.9785L18.2608 7.54712L16.5354 8.02389L10.5688 9.67321C9.83094 9.87688 9.39906 10.6308 9.60889 11.348C9.6842 11.6052 9.83421 11.8219 10.2039 12.5929L15.2382 11.2013Z" fill="#FCCEAE"/>
    </g>
    <mask id="mask2" mask-type="alpha" maskUnits="userSpaceOnUse" x="6" y="5" width="22" height="21">
        <path fill-rule="evenodd" clip-rule="evenodd" d="M7.57034 5.2843C7.00273 5.2843 6.53841 5.73533 6.53841 6.28703V24.6835C6.53841 25.235 7.00273 25.6866 7.57034 25.6866H26.2367C26.8043 25.6866 27.2687 25.235 27.2687 24.6835V6.28703C27.2687 5.73533 26.8043 5.2843 26.2367 5.2843H7.57034Z" fill="white"/>
    </mask>
    <g mask="url(#mask2)">
        <path fill-rule="evenodd" clip-rule="evenodd" d="M18.2607 7.54704L28.5452 4.98352L31.4559 14.933L21.1717 17.4965L18.2607 7.54704Z" fill="#FF4081"/>
    </g>
    <mask id="mask3" mask-type="alpha" maskUnits="userSpaceOnUse" x="6" y="5" width="22" height="21">
        <path fill-rule="evenodd" clip-rule="evenodd" d="M7.57034 5.2843C7.00273 5.2843 6.53841 5.73533 6.53841 6.28703V24.6835C6.53841 25.235 7.00273 25.6866 7.57034 25.6866H26.2367C26.8043 25.6866 27.2687 25.235 27.2687 24.6835V6.28703C27.2687 5.73533 26.8043 5.2843 26.2367 5.2843H7.57034Z" fill="white"/>
    </mask>
    <g mask="url(#mask3)">
        <path fill-rule="evenodd" clip-rule="evenodd" d="M18.2607 7.54702L28.4901 4.79517L29.2488 7.37373L19.0194 10.1253L18.2607 7.54702Z" fill="#CC1B63"/>
    </g>
    <mask id="mask4" mask-type="alpha" maskUnits="userSpaceOnUse" x="6" y="5" width="22" height="21">
        <path fill-rule="evenodd" clip-rule="evenodd" d="M7.57034 5.2843C7.00273 5.2843 6.53841 5.73533 6.53841 6.28703V24.6835C6.53841 25.235 7.00273 25.6866 7.57034 25.6866H26.2367C26.8043 25.6866 27.2687 25.235 27.2687 24.6835V6.28703C27.2687 5.73533 26.8043 5.2843 26.2367 5.2843" fill="white"/>
    </mask>
    <g mask="url(#mask4)">
        <path d="M12.33 17.6426L11.6594 17.8281C10.9215 18.032 10.4893 18.7857 10.6992 19.5029C10.909 20.22 11.6844 20.6398 12.4222 20.4359L15.9454 19.4621C16.4324 19.3275 16.9396 19.6021 17.0783 20.0754L17.7664 22.4274C17.976 23.1446 18.7513 23.5647 19.4895 23.3607C20.227 23.1568 20.6592 22.4031 20.4494 21.6859L19.7612 19.3339C19.6225 18.8603 19.9053 18.3676 20.3922 18.2331L31.5187 15.148L28.467 4.71655L16.5354 8.02387L10.5691 9.67319C9.83124 9.87686 9.39906 10.6305 9.6089 11.3477C9.81874 12.0649 10.5941 12.4849 11.332 12.281" stroke="#0F2054" stroke-linecap="round" stroke-linejoin="round"/>
    </g>
    <mask id="mask5" mask-type="alpha" maskUnits="userSpaceOnUse" x="6" y="5" width="22" height="21">
        <path fill-rule="evenodd" clip-rule="evenodd" d="M7.57034 5.2843C7.00273 5.2843 6.53841 5.73533 6.53841 6.28703V24.6835C6.53841 25.235 7.00273 25.6866 7.57034 25.6866H26.2367C26.8043 25.6866 27.2687 25.235 27.2687 24.6835V6.28703C27.2687 5.73533 26.8043 5.2843 26.2367 5.2843" fill="white"/>
    </mask>
    <g mask="url(#mask5)">
        <path d="M11.9011 17.7612C11.1632 17.9652 10.3879 17.5451 10.178 16.8279C9.96819 16.1108 10.4004 15.3571 11.1382 15.1535L11.8088 14.968" stroke="#0F2054" stroke-linecap="round" stroke-linejoin="round"/>
    </g>
    <mask id="mask6" mask-type="alpha" maskUnits="userSpaceOnUse" x="6" y="5" width="22" height="21">
        <path fill-rule="evenodd" clip-rule="evenodd" d="M7.57034 5.2843C7.00273 5.2843 6.53841 5.73533 6.53841 6.28703V24.6835C6.53841 25.235 7.00273 25.6866 7.57034 25.6866H26.2367C26.8043 25.6866 27.2687 25.235 27.2687 24.6835V6.28703C27.2687 5.73533 26.8043 5.2843 26.2367 5.2843" fill="white"/>
    </mask>
    <g mask="url(#mask6)">
        <path d="M11.6537 15.0109C10.9159 15.2148 10.1405 14.7948 9.93068 14.0776C9.72084 13.3604 10.153 12.6068 10.8909 12.4028L11.5612 12.2177" stroke="#0F2054" stroke-linecap="round" stroke-linejoin="round"/>
    </g>
    <mask id="mask7" mask-type="alpha" maskUnits="userSpaceOnUse" x="6" y="5" width="22" height="21">
        <path fill-rule="evenodd" clip-rule="evenodd" d="M7.57034 5.2843C7.00273 5.2843 6.53841 5.73533 6.53841 6.28703V6.28703V24.6835C6.53841 25.235 7.00273 25.6866 7.57034 25.6866V25.6866H26.2367C26.8043 25.6866 27.2687 25.235 27.2687 24.6835V24.6835V6.28703C27.2687 5.73533 26.8043 5.2843 26.2367 5.2843V5.2843" fill="white"/>
    </mask>
    <g mask="url(#mask7)">
        <path fill-rule="evenodd" clip-rule="evenodd" d="M21.3126 17.9786L18.2609 7.54688Z" fill="#0F2054"/>
        <path d="M21.3126 17.9786L18.2609 7.54688" stroke="#0F2054" stroke-linecap="round" stroke-linejoin="round"/>
    </g>
    <path fill-rule="evenodd" clip-rule="evenodd" d="M26.2368 5.28406H7.5704C7.00279 5.28406 6.53847 5.73537 6.53847 6.28707V24.6833C6.53847 25.235 7.00279 25.6863 7.5704 25.6863H26.2368C26.8044 25.6863 27.2687 25.235 27.2687 24.6833V6.28707C27.2687 5.73537 26.8044 5.28406 26.2368 5.28406V5.28406ZM8.02668 24.2398H25.7805V6.73058H8.02668V24.2398Z" fill="white"/>
</svg>
