<svg width="35" height="32" viewBox="0 0 35 32" fill="none" xmlns="http://www.w3.org/2000/svg">
    <path fill-rule="evenodd" clip-rule="evenodd" d="M30.2465 31.0588H3.83901C2.00975 31.0588 0.526581 29.7387 0.526581 28.1099V3.89003C0.526581 2.26125 2.00975 0.941162 3.83901 0.941162H30.2465C32.0757 0.941162 33.5589 2.26125 33.5589 3.89003V28.1099C33.5589 29.7387 32.0757 31.0588 30.2465 31.0588Z" fill="#1DE9B6"/>
    <path fill-rule="evenodd" clip-rule="evenodd" d="M30.2465 31.0588H3.83901C2.00975 31.0588 0.526581 29.7387 0.526581 28.1099V3.89003C0.526581 2.26125 2.00975 0.941162 3.83901 0.941162H30.2465C32.0757 0.941162 33.5589 2.26125 33.5589 3.89003V28.1099C33.5589 29.7387 32.0757 31.0588 30.2465 31.0588Z" stroke="#0F2054" stroke-linecap="round" stroke-linejoin="round"/>
    <path fill-rule="evenodd" clip-rule="evenodd" d="M23.7919 27.6584H7.28593C5.60063 27.6584 4.22211 26.4311 4.22211 24.9308V9.98337C4.22211 8.48362 5.60063 7.2561 7.28593 7.2561H23.7919C25.4768 7.2561 26.8557 8.48362 26.8557 9.98337V24.9308C26.8557 26.4311 25.4768 27.6584 23.7919 27.6584Z" fill="#00BFA5"/>
    <path fill-rule="evenodd" clip-rule="evenodd" d="M27.854 25.6863H7.47375C6.85403 25.6863 6.34708 25.2347 6.34708 24.6833V6.28678C6.34708 5.73537 6.85403 5.28406 7.47375 5.28406H27.854C28.4737 5.28406 28.9806 5.73537 28.9806 6.28678V24.6833C28.9806 25.2347 28.4737 25.6863 27.854 25.6863Z" fill="white"/>
    <mask id="mask0" mask-type="alpha" maskUnits="userSpaceOnUse" x="6" y="5" width="23" height="21">
        <path fill-rule="evenodd" clip-rule="evenodd" d="M7.47343 5.28418C6.85403 5.28418 6.34708 5.73549 6.34708 6.28691V24.6834C6.34708 25.2348 6.85403 25.6864 7.47343 25.6864H27.854C28.4734 25.6864 28.9806 25.2348 28.9806 24.6834V6.28691C28.9806 5.73549 28.4734 5.28418 27.854 5.28418" fill="white"/>
    </mask>
    <g mask="url(#mask0)">
        <path fill-rule="evenodd" clip-rule="evenodd" d="M24.1315 18.7274L24.8636 18.542C25.6692 18.338 26.1408 17.5844 25.912 16.8672C25.6829 16.15 24.8363 15.7302 24.0307 15.9342L23.8614 15.977L24.5936 15.7918C25.3992 15.5876 25.8707 14.834 25.6416 14.1168C25.4125 13.3996 24.566 12.9798 23.7604 13.1838L23.2924 13.3021L24.0246 13.1167C24.8302 12.9127 25.3017 12.1593 25.0726 11.4419C24.8435 10.725 23.9969 10.3052 23.1913 10.5092L19.345 11.4827C18.813 11.6175 18.2593 11.3429 18.1081 10.8693L17.3568 8.51731C17.1277 7.80012 16.2812 7.38035 15.4756 7.58401C14.67 7.78797 14.1984 8.5419 14.4275 9.25879L15.1789 11.6108C15.33 12.0844 15.0216 12.5774 14.4896 12.7119L10.3498 13.7601L13.6817 24.1918L18.7006 22.9209L25.2149 21.2718C26.0205 21.0679 26.4921 20.3142 26.263 19.5971C26.0339 18.8799 25.1873 18.4601 24.3817 18.6638" fill="#FFE6BF"/>
    </g>
    <mask id="mask1" mask-type="alpha" maskUnits="userSpaceOnUse" x="6" y="5" width="23" height="21">
        <path fill-rule="evenodd" clip-rule="evenodd" d="M7.47343 5.28418C6.85403 5.28418 6.34708 5.73549 6.34708 6.28691V24.6834C6.34708 25.2348 6.85403 25.6864 7.47343 25.6864H27.854C28.4734 25.6864 28.9806 25.2348 28.9806 24.6834V6.28691C28.9806 5.73549 28.4734 5.28418 27.854 5.28418H7.47343Z" fill="white"/>
    </mask>
    <g mask="url(#mask1)">
        <path fill-rule="evenodd" clip-rule="evenodd" d="M20.1169 19.7437L18.2334 20.2205L15.6437 12.113L13.4849 12.9665L16.8169 23.3979L18.7004 22.9208L25.2148 21.2718C26.0204 21.0678 26.4922 20.3145 26.2631 19.597C26.1809 19.3398 26.0171 19.1231 25.6135 18.3522L20.1169 19.7437Z" fill="#FCCEAE"/>
    </g>
    <mask id="mask2" mask-type="alpha" maskUnits="userSpaceOnUse" x="6" y="5" width="23" height="21">
        <path fill-rule="evenodd" clip-rule="evenodd" d="M7.47343 5.28418C6.85403 5.28418 6.34708 5.73549 6.34708 6.28691V24.6834C6.34708 25.2348 6.85403 25.6864 7.47343 25.6864H27.854C28.4734 25.6864 28.9806 25.2348 28.9806 24.6834V6.28691C28.9806 5.73549 28.4734 5.28418 27.854 5.28418H7.47343Z" fill="white"/>
    </mask>
    <g mask="url(#mask2)">
        <path fill-rule="evenodd" clip-rule="evenodd" d="M16.8169 23.3978L5.58849 25.9613L2.41028 16.0122L13.6387 13.4484L16.8169 23.3978Z" fill="#1DE9B6"/>
    </g>
    <mask id="mask3" mask-type="alpha" maskUnits="userSpaceOnUse" x="6" y="5" width="23" height="21">
        <path fill-rule="evenodd" clip-rule="evenodd" d="M7.47343 5.28418C6.85403 5.28418 6.34708 5.73549 6.34708 6.28691V24.6834C6.34708 25.2348 6.85403 25.6864 7.47343 25.6864H27.854C28.4734 25.6864 28.9806 25.2348 28.9806 24.6834V6.28691C28.9806 5.73549 28.4734 5.28418 27.854 5.28418H7.47343Z" fill="white"/>
    </mask>
    <g mask="url(#mask3)">
        <path fill-rule="evenodd" clip-rule="evenodd" d="M16.8169 23.3979L5.64862 26.1497L4.81995 23.5714L15.9885 20.8196L16.8169 23.3979Z" fill="#00BFA5"/>
        <path d="M23.2923 13.3021L24.0244 13.1167C24.83 12.9127 25.3016 12.1593 25.0728 11.4419C24.8434 10.725 23.9968 10.3052 23.1912 10.5092L19.3448 11.4827C18.8129 11.6175 18.2594 11.3429 18.108 10.8693L17.3567 8.51731C17.1279 7.80012 16.281 7.38035 15.4754 7.58401C14.6698 7.78797 14.1983 8.5419 14.4274 9.25879L15.1787 11.6108C15.3298 12.0844 15.0214 12.5774 14.4895 12.7119L2.3414 15.7968L5.67365 26.2285L18.7008 22.9209L25.2148 21.2718C26.0204 21.0679 26.4919 20.3142 26.2632 19.5971C26.034 18.8799 25.1875 18.4601 24.3819 18.6638" stroke="#0F2054" stroke-linecap="round" stroke-linejoin="round"/>
        <path d="M23.7604 13.1837C24.566 12.9798 25.4126 13.3996 25.6417 14.117C25.8708 14.8339 25.3989 15.5879 24.5933 15.7918L23.8615 15.977" stroke="#0F2054" stroke-linecap="round" stroke-linejoin="round"/>
        <path d="M24.0306 15.9341C24.8362 15.7302 25.6828 16.1499 25.9119 16.8674C26.141 17.5843 25.6691 18.3382 24.8635 18.5422L24.1314 18.7273" stroke="#0F2054" stroke-linecap="round" stroke-linejoin="round"/>
        <path d="M13.4848 12.9664L16.817 23.3978" stroke="#0F2054" stroke-linecap="round" stroke-linejoin="round"/>
    </g>
    <path fill-rule="evenodd" clip-rule="evenodd" d="M27.8539 5.28394H7.47366C6.85394 5.28394 6.34698 5.73554 6.34698 6.28695V24.6835C6.34698 25.2349 6.85394 25.6862 7.47366 25.6862H27.8539C28.4736 25.6862 28.9806 25.2349 28.9806 24.6835V6.28695C28.9806 5.73554 28.4736 5.28394 27.8539 5.28394ZM7.97223 24.2396H27.3558V6.7304H7.97223V24.2396Z" fill="white"/>
</svg>
