<svg width="52" height="55" viewBox="0 0 52 55" fill="none" xmlns="http://www.w3.org/2000/svg">
<path fill-rule="evenodd" clip-rule="evenodd" d="M37.9813 31.411C34.9618 31.411 32.1711 30.4153 29.9186 28.7357L26.78 33.265C26.2824 33.9828 25.2209 33.9828 24.7234 33.265L21.5848 28.7357C19.3323 30.4153 16.5415 31.411 13.5221 31.411C10.426 31.411 7.57046 30.3642 5.289 28.6069C5.99804 34.4572 8.08833 39.5234 11.5077 43.6736C15.0139 47.9287 20.1962 50.3693 25.7256 50.3693C31.2554 50.3693 36.4375 47.9287 39.9436 43.6736C43.3544 39.5341 45.4425 34.4828 46.1568 28.6511C43.8849 30.3818 41.0512 31.411 37.9813 31.411Z" fill="#1DE9B6"/>
<path fill-rule="evenodd" clip-rule="evenodd" d="M40.8141 42.5574C40.8085 42.565 40.8027 42.5726 40.797 42.5803C40.6775 42.7417 40.5558 42.9017 40.4324 43.0606C40.403 43.0984 40.3737 43.1364 40.3442 43.1739C40.2125 43.3419 40.0795 43.5087 39.9436 43.6736C39.8162 43.8284 39.6858 43.9799 39.5539 44.1299C39.5141 44.1751 39.4736 44.2194 39.4333 44.2642C39.3375 44.3712 39.2406 44.477 39.1425 44.5812C39.0988 44.6279 39.0548 44.6743 39.0107 44.7204C38.9027 44.833 38.7933 44.9437 38.6827 45.0533C38.6519 45.0838 38.6217 45.115 38.5906 45.1452C38.4462 45.2864 38.2997 45.4249 38.1512 45.5608C38.1314 45.5788 38.1113 45.5963 38.0915 45.6141C37.9623 45.7313 37.8316 45.8463 37.6995 45.9594C37.6614 45.9921 37.6231 46.0241 37.5849 46.0563C37.4623 46.1596 37.3383 46.2612 37.2133 46.3609C37.1805 46.387 37.148 46.4135 37.1151 46.4394C36.7921 46.6936 36.4615 46.9365 36.1235 47.1676C36.1089 47.1776 36.094 47.1873 36.0794 47.1973C35.9236 47.303 35.7663 47.4061 35.6076 47.5069C35.5844 47.5217 35.5612 47.5365 35.5378 47.5511C35.3677 47.6581 35.196 47.7626 35.0227 47.864C35.0226 47.864 35.0224 47.8641 35.0222 47.8643C34.6535 48.0794 34.2774 48.2813 33.8948 48.4701C33.8907 48.4722 33.8866 48.4741 33.8824 48.4761C33.6943 48.5688 33.5045 48.6582 33.3134 48.7444C33.3109 48.7455 33.3083 48.7466 33.3059 48.7478C32.7208 49.011 32.1217 49.2436 31.5106 49.4445H31.5105C29.6688 50.0502 27.7201 50.3694 25.7256 50.3694C25.5849 50.3694 25.4444 50.367 25.3042 50.3635C23.1275 50.3146 21.0105 49.8869 19.0346 49.1199C19.0203 49.1144 19.0059 49.1088 18.9917 49.1032C18.808 49.0313 18.6255 48.9569 18.4442 48.8792C18.4418 48.8781 18.4392 48.8772 18.4367 48.8761C17.8785 48.6365 17.3327 48.369 16.801 48.0749C16.7778 48.0622 16.7547 48.049 16.7315 48.0363C16.5784 47.9508 16.4266 47.8632 16.2761 47.7732C16.2534 47.7597 16.2307 47.7464 16.2081 47.7328C15.8637 47.5252 15.5256 47.3067 15.1948 47.0762C15.1872 47.0709 15.1798 47.0654 15.1723 47.0603C15.0227 46.9555 14.8746 46.8482 14.7279 46.7391C14.6918 46.7122 14.6562 46.685 14.6203 46.6578C14.4998 46.5667 14.3804 46.4742 14.2621 46.3801C14.2224 46.3486 14.1826 46.317 14.1432 46.2851C14.0198 46.1853 13.8978 46.0838 13.7768 45.9805C13.749 45.9567 13.7206 45.9335 13.6929 45.9096C13.5434 45.7805 13.3957 45.6494 13.2502 45.5152C13.2362 45.5023 13.2225 45.4888 13.2085 45.4758C13.0818 45.3582 12.9566 45.2388 12.8328 45.1173C12.7901 45.0755 12.7478 45.0326 12.7055 44.9902C12.61 44.8946 12.5153 44.7981 12.4217 44.7003C12.3753 44.6519 12.3292 44.6033 12.2832 44.5543C12.1904 44.4551 12.099 44.3546 12.008 44.2532C11.9677 44.2081 11.9269 44.1636 11.887 44.1181C11.7587 43.9719 11.6319 43.8242 11.5078 43.6736C11.3719 43.5086 11.2388 43.3416 11.107 43.1738C11.0774 43.136 11.0481 43.0981 11.0186 43.0602C10.8959 42.902 10.7747 42.7426 10.6556 42.5818C10.6493 42.5735 10.6431 42.565 10.6368 42.5566C7.73175 38.6256 5.93564 33.9424 5.28897 28.6069C7.57042 30.3642 10.4261 31.411 13.5221 31.411C16.5415 31.411 19.3323 30.4153 21.5848 28.7357L24.7233 33.265C25.221 33.9828 26.2825 33.9828 26.78 33.265L29.9186 28.7357C32.171 30.4153 34.9618 31.411 37.9813 31.411C41.0513 31.411 43.8849 30.3818 46.1569 28.6511C45.5054 33.9687 43.7113 38.6372 40.8141 42.5574ZM48.6613 29.5336C48.7205 29.1035 48.7733 28.6698 48.8185 28.2318C48.8876 27.5606 48.9227 26.8587 48.9227 26.1463C48.9227 26.0498 48.9112 25.9561 48.8909 25.8657C50.5298 23.6293 51.4992 20.873 51.4992 17.8942C51.4992 16.2029 51.1861 14.5837 50.6162 13.0903C50.3173 11.9165 49.0746 6.64386 49.7412 2.56035C50.0002 0.972966 48.5363 -0.349367 46.987 0.0828987L39.3338 2.21881C36.4104 1.42733 31.628 0.456481 25.7516 0.456481C19.8855 0.456481 15.1096 1.42389 12.1848 2.21464L4.54653 0.0828987C2.9972 -0.349367 1.53319 0.972966 1.79226 2.56035C2.42432 6.43184 1.34006 11.3721 0.971118 12.8751C0.347898 14.4277 0.00411987 16.1215 0.00411987 17.8942C0.00411987 20.8498 0.958472 23.5862 2.5741 25.8132C2.54537 25.9196 2.52868 26.031 2.52868 26.1463C2.52868 26.8602 2.56367 27.5619 2.63291 28.2321C2.65342 28.431 2.67564 28.6289 2.69909 28.826C1.38304 31.9696 0.531573 35.3876 0.156119 39.0563C0.0781549 39.8197 0.0387432 40.6121 0.0387432 41.4118H6.78575C7.58246 42.7784 8.48561 44.0771 9.49644 45.3038C11.7287 48.0129 14.557 50.0768 17.7171 51.373C17.5081 52.9379 19.1016 54.4846 21.3149 54.8466C23.3151 55.1735 25.1435 54.4215 25.6988 53.1297C26.3298 54.1659 27.7889 54.8893 29.4863 54.8846C31.7579 54.8785 33.5959 53.5711 33.5915 51.9647C33.591 51.7911 33.5678 51.6215 33.5261 51.4565C36.7702 50.1664 39.6739 48.0724 41.955 45.3038C42.9657 44.0771 43.8689 42.7785 44.6656 41.4118H51.0352C51.0352 40.6089 50.9957 39.8157 50.9179 39.0546C50.5705 35.6602 49.8151 32.4805 48.6613 29.5336Z" fill="#0F2054"/>
<path fill-rule="evenodd" clip-rule="evenodd" d="M15.5822 38.9914C14.5779 37.6359 13.736 36.2437 13.0332 34.8369H13.5221C17.2706 34.8369 20.7343 33.6187 23.5405 31.558L21.5848 28.7357C19.3323 30.4153 16.5415 31.4111 13.5221 31.4111C10.426 31.4111 7.57046 30.3642 5.289 28.6069C5.99804 34.4571 8.08833 39.5234 11.5077 43.6736C15.0139 47.9287 20.1962 50.3694 25.7256 50.3694C30.3111 50.3694 34.6566 48.6897 38.0066 45.6901C30.2007 48.5665 20.9602 46.2506 15.5822 38.9914Z" fill="#00BFA5"/>
<path fill-rule="evenodd" clip-rule="evenodd" d="M37.9813 6.95375C31.9482 6.95375 27.0398 11.8618 27.0398 17.8942C27.0398 23.9269 31.9482 28.8348 37.9813 28.8348C44.0145 28.8348 48.9227 23.9269 48.9227 17.8942C48.9227 11.8618 44.0145 6.95375 37.9813 6.95375Z" fill="#FFF9C4"/>
<path fill-rule="evenodd" clip-rule="evenodd" d="M13.5221 6.95375C7.48888 6.95375 2.5806 11.8618 2.5806 17.8942C2.5806 23.9269 7.48888 28.8348 13.5221 28.8348C19.5552 28.8348 24.4635 23.9269 24.4635 17.8942C24.4635 11.8618 19.5552 6.95375 13.5221 6.95375Z" fill="#FFF9C4"/>
<path fill-rule="evenodd" clip-rule="evenodd" d="M44.6496 17.8944C44.6496 19.0309 43.7282 19.9523 42.5915 19.9523C41.4548 19.9523 40.5334 19.0309 40.5334 17.8944C40.5334 16.7576 41.4548 15.8363 42.5915 15.8363C43.7282 15.8363 44.6496 16.7576 44.6496 17.8944Z" fill="#0F2054"/>
<path fill-rule="evenodd" clip-rule="evenodd" d="M31.1543 17.8942C31.1543 13.1065 33.9063 8.96201 37.9148 6.95476C31.9122 6.99073 27.0399 11.884 27.0399 17.8942C27.0399 23.9047 31.9122 28.798 37.9148 28.834C33.9065 26.8267 31.1543 22.6822 31.1543 17.8942Z" fill="#FFCC80"/>
<path fill-rule="evenodd" clip-rule="evenodd" d="M20.1904 17.8944C20.1904 19.0309 19.2689 19.9523 18.1323 19.9523C16.9956 19.9523 16.0741 19.0309 16.0741 17.8944C16.0741 16.7576 16.9956 15.8363 18.1323 15.8363C19.2689 15.8363 20.1904 16.7576 20.1904 17.8944Z" fill="#0F2054"/>
<path fill-rule="evenodd" clip-rule="evenodd" d="M6.695 17.8942C6.695 13.1065 9.44707 8.96201 13.4555 6.95476C7.45291 6.99073 2.5806 11.884 2.5806 17.8942C2.5806 23.9047 7.45291 28.798 13.4555 28.834C9.44719 26.8267 6.695 22.6822 6.695 17.8942Z" fill="#FFCC80"/>
<path fill-rule="evenodd" clip-rule="evenodd" d="M26.6706 36.6506H24.6183C23.9068 36.6506 23.33 37.2273 23.33 37.9387C23.33 38.6501 23.9068 39.2269 24.6183 39.2269H26.6706C27.3821 39.2269 27.9587 38.6501 27.9587 37.9387C27.9587 37.2273 27.3821 36.6506 26.6706 36.6506Z" fill="#0F2054"/>
<path fill-rule="evenodd" clip-rule="evenodd" d="M21.7016 42.2485H19.6494C18.9379 42.2485 18.3611 42.8253 18.3611 43.5367C18.3611 44.2482 18.9379 44.8248 19.6494 44.8248H21.7016C22.4131 44.8248 22.9898 44.2482 22.9898 43.5367C22.9898 42.8253 22.4131 42.2485 21.7016 42.2485Z" fill="#0F2054"/>
<path fill-rule="evenodd" clip-rule="evenodd" d="M31.6397 42.2485H29.5873C28.8759 42.2485 28.2992 42.8253 28.2992 43.5367C28.2992 44.2482 28.8759 44.8248 29.5873 44.8248H31.6397C32.3512 44.8248 32.9279 44.2482 32.9279 43.5367C32.9279 42.8253 32.3512 42.2485 31.6397 42.2485Z" fill="#0F2054"/>
</svg>
