<svg width="17" height="16" viewBox="0 0 17 16" fill="none" xmlns="http://www.w3.org/2000/svg">
<g clip-path="url(#clip0)">
<path d="M9.76181 5.30838V0.632431H6.58289V5.30838C4.60823 5.99595 3.18481 7.92722 3.18481 10.2034C3.18481 13.0559 5.41777 15.3681 8.17179 15.3681C10.9258 15.3681 13.1588 13.0559 13.1588 10.2034C13.1588 7.9261 11.7365 5.99595 9.76181 5.30838Z" fill="white"/>
<path opacity="0.55" d="M9.76181 5.30838V0.632431H6.58289V5.30838C4.60823 5.99595 3.18481 7.92722 3.18481 10.2034C3.18481 13.0559 5.41777 15.3681 8.17179 15.3681C10.9258 15.3681 13.1588 13.0559 13.1588 10.2034C13.1588 7.9261 11.7365 5.99595 9.76181 5.30838Z" fill="#FFDDE9"/>
<path d="M12.2083 10.2032C12.2083 12.5243 10.3981 14.4117 8.1718 14.4117C5.94667 14.4117 4.13525 12.5232 4.13525 10.2032" fill="#9060F6"/>
<path d="M6.03833 0.632446H10.3052" stroke="#0F2054" stroke-width="0.613996" stroke-miterlimit="10" stroke-linecap="round" stroke-linejoin="round"/>
<path d="M5.47481 11.4952C6.21462 11.4952 6.81436 10.8926 6.81436 10.1493C6.81436 9.40594 6.21462 8.80334 5.47481 8.80334C4.73499 8.80334 4.13525 9.40594 4.13525 10.1493C4.13525 10.8926 4.73499 11.4952 5.47481 11.4952Z" fill="#9060F6"/>
<path d="M7.71992 11.0076C8.45974 11.0076 9.05948 10.405 9.05948 9.66163C9.05948 8.91829 8.45974 8.31569 7.71992 8.31569C6.98011 8.31569 6.38037 8.91829 6.38037 9.66163C6.38037 10.405 6.98011 11.0076 7.71992 11.0076Z" fill="#9060F6"/>
<path d="M9.51118 12.0828C10.251 12.0828 10.8507 11.4802 10.8507 10.7369C10.8507 9.99354 10.251 9.39095 9.51118 9.39095C8.77137 9.39095 8.17163 9.99354 8.17163 10.7369C8.17163 11.4802 8.77137 12.0828 9.51118 12.0828Z" fill="#9060F6"/>
<path d="M9.69625 8.59099C10.0464 8.59099 10.3302 8.30579 10.3302 7.95397C10.3302 7.60216 10.0464 7.31696 9.69625 7.31696C9.3461 7.31696 9.06226 7.60216 9.06226 7.95397C9.06226 8.30579 9.3461 8.59099 9.69625 8.59099Z" fill="#9060F6"/>
<path d="M7.87489 5.64789C8.12253 5.64789 8.32328 5.44619 8.32328 5.19737C8.32328 4.94856 8.12253 4.74686 7.87489 4.74686C7.62726 4.74686 7.42651 4.94856 7.42651 5.19737C7.42651 5.44619 7.62726 5.64789 7.87489 5.64789Z" fill="#9060F6"/>
<path d="M7.78472 2.0788C7.98255 2.0788 8.14292 1.91766 8.14292 1.71889C8.14292 1.52012 7.98255 1.35898 7.78472 1.35898C7.58689 1.35898 7.42651 1.52012 7.42651 1.71889C7.42651 1.91766 7.58689 2.0788 7.78472 2.0788Z" fill="#9060F6"/>
<path d="M9.76181 5.30838V0.632431H6.58289V5.30838C4.60823 5.99595 3.18481 7.92722 3.18481 10.2034C3.18481 13.0559 5.41777 15.3681 8.17179 15.3681C10.9258 15.3681 13.1588 13.0559 13.1588 10.2034C13.1588 7.9261 11.7365 5.99595 9.76181 5.30838Z" stroke="#0F2054" stroke-width="0.580749" stroke-miterlimit="10" stroke-linecap="round" stroke-linejoin="round"/>
<path d="M11.3149 8.12139C10.8666 7.38101 10.1822 6.80354 9.34587 6.51256" stroke="white" stroke-width="0.576454" stroke-miterlimit="10" stroke-linecap="round" stroke-linejoin="round"/>
</g>
<defs>
<clipPath id="clip0">
<rect width="16" height="16" fill="white" transform="translate(0.171875 0.000244141)"/>
</clipPath>
</defs>
</svg>
